<svg width="48" height="49" viewBox="0 0 48 49" fill="none" xmlns="http://www.w3.org/2000/svg">
<g clip-path="url(#clip0_244_1094)">
<path d="M10.1 0.892212H37.8C43.5 0.892212 48 5.39221 48 10.9922V38.6922C48 44.3922 43.5 48.8922 37.9 48.8922H10.1C4.5 48.8922 0 44.3922 0 38.7922V10.9922C0 5.39221 4.5 0.892212 10.1 0.892212Z" fill="#93E9BE"/>
<mask id="path-2-inside-1_244_1094" fill="white">
<path d="M30.2696 29.6797L37.1846 33.169C37.2534 33.204 37.3009 33.2578 37.3271 33.3303L38.6378 37.0859C38.679 37.2059 38.6365 37.2659 38.5103 37.2659H37.2371C37.1571 37.2659 37.1046 37.2284 37.0796 37.1534L36.1534 34.4084C36.1284 34.3359 36.0815 34.2822 36.0128 34.2472L29.7746 31.1178C29.7563 31.1089 29.7358 31.1057 29.7157 31.1086C29.6956 31.1116 29.6768 31.1205 29.6618 31.1343C29.6469 31.148 29.6364 31.166 29.6317 31.1858C29.6271 31.2056 29.6286 31.2263 29.6359 31.2453C29.9771 32.0947 30.4084 33.2253 30.1703 34.1347C29.904 35.1497 29.644 36.164 29.3903 37.1778C29.3832 37.2057 29.3669 37.2305 29.3442 37.2481C29.3214 37.2658 29.2934 37.2753 29.2646 37.2753L27.8865 37.2772C27.8065 37.2772 27.7778 37.239 27.8003 37.1628C28.2203 35.6703 28.9684 33.5047 28.5484 32.809C28.5159 32.7565 28.474 32.7478 28.4228 32.7828C26.5909 34.0278 24.3634 35.1697 22.1228 34.2622C21.1078 33.8509 20.144 33.3434 19.2315 32.7397C19.1878 32.7097 19.154 32.719 19.1303 32.7678C18.9453 33.149 18.8715 33.4184 18.909 33.5759C19.194 34.7747 19.5003 35.9672 19.8278 37.1534C19.8478 37.2259 19.8196 37.2628 19.7434 37.264L18.3915 37.2809C18.3228 37.2822 18.2796 37.2497 18.2621 37.1834C17.8034 35.4272 17.5109 34.2678 17.3846 33.7053C17.2609 33.1503 17.8384 31.7384 18.0165 31.1534C18.02 31.1431 18.0204 31.132 18.0175 31.1215C18.0146 31.111 18.0086 31.1016 18.0003 31.0945C17.9921 31.0874 17.9818 31.083 17.971 31.0818C17.9602 31.0806 17.9493 31.0827 17.9396 31.0878L11.6809 34.2228C11.5784 34.274 11.509 34.3534 11.4728 34.4609L10.5578 37.2078C10.5453 37.244 10.5196 37.2622 10.4809 37.2622L9.13838 37.2847C9.05963 37.2847 9.02963 37.2465 9.04838 37.1703C9.24713 36.3809 10.0496 33.3697 10.7321 33.0265C12.8471 31.969 15.014 30.8859 17.2328 29.7772C17.374 29.7059 17.424 29.594 17.3828 29.4415C16.9303 27.7965 16.6215 26.1247 16.4565 24.4259C16.4515 24.3701 16.4288 24.3175 16.3916 24.2759C16.3544 24.2344 16.3048 24.2061 16.2503 24.1953C15.1328 23.9684 13.6834 23.2934 13.1265 22.2622C12.4459 21.004 13.0403 19.5622 14.499 19.3184C14.994 19.2359 15.6109 19.3747 16.1603 19.459C16.2303 19.469 16.2646 19.4384 16.2634 19.3672C16.2015 15.7653 15.4234 11.7809 20.5796 11.779C22.5946 11.7778 24.6103 11.7765 26.6265 11.7753C27.8428 11.774 28.6946 11.869 29.1821 12.0603C30.3578 12.5197 31.2859 13.5959 31.3478 14.9122C31.4178 16.3822 31.4215 17.854 31.359 19.3278C31.3565 19.3953 31.389 19.4265 31.4565 19.4215C32.6021 19.3334 33.7684 19.0522 34.4978 20.1659C35.0715 21.0415 34.7621 22.1759 34.0328 22.8509C33.2803 23.5472 32.3996 23.9934 31.3909 24.1897C31.3368 24.2001 31.2875 24.2279 31.2506 24.2688C31.2137 24.3098 31.1912 24.3616 31.1865 24.4165C31.0315 26.164 30.709 27.8784 30.219 29.5597C30.2028 29.6147 30.2196 29.6547 30.2696 29.6797ZM32.9734 20.8259C32.3521 20.8072 31.8128 20.8734 31.3553 21.0247C27.2778 22.3747 23.1546 22.619 18.9859 21.7578C17.8815 21.5309 16.029 20.839 14.8421 20.7809C14.4871 20.7634 14.3353 20.9665 14.3865 21.3903C14.394 21.449 14.4165 21.5015 14.454 21.5478C14.874 22.0565 15.4128 22.4047 16.0703 22.5922C21.1534 24.049 26.3565 24.1803 31.4359 22.6447C32.0003 22.474 33.8546 21.5984 33.1403 20.8972C33.094 20.8509 33.0384 20.8272 32.9734 20.8259ZM22.8596 29.2465V32.9234C22.8596 32.9884 22.8921 33.0253 22.9571 33.034L24.0953 33.1765C24.1284 33.1805 24.162 33.1774 24.1939 33.1674C24.2257 33.1575 24.2551 33.1409 24.2801 33.1187C24.3051 33.0966 24.3251 33.0694 24.3388 33.039C24.3525 33.0085 24.3596 32.9755 24.3596 32.9422V29.224C24.3596 29.1703 24.3853 29.134 24.4365 29.1153C25.8328 28.599 27.2271 28.0803 28.6196 27.559C28.9421 27.439 29.2909 27.3903 29.3265 26.9759C29.334 26.8847 29.2965 26.8603 29.214 26.9028C27.4609 27.8197 25.3571 27.739 23.9415 26.2428C23.894 26.1928 23.844 26.1909 23.7915 26.2372C22.189 27.6447 20.4096 27.8747 18.4534 26.9272C18.3621 26.8834 18.3265 26.9109 18.3465 27.0097L18.444 27.4934C18.459 27.5672 18.5021 27.6165 18.5734 27.6415L22.7565 29.1003C22.8253 29.124 22.8596 29.1728 22.8596 29.2465Z"/>
</mask>
<path d="M30.2696 29.6797L30.7201 28.7869L30.7168 28.7852L30.2696 29.6797ZM37.1846 33.169L37.6383 32.2779L37.6351 32.2763L37.1846 33.169ZM37.3271 33.3303L38.2714 33.0008L38.2674 32.9898L37.3271 33.3303ZM38.6378 37.0859L39.5834 36.7608L39.5819 36.7564L38.6378 37.0859ZM37.0796 37.1534L38.0283 36.8372L38.0271 36.8337L37.0796 37.1534ZM36.1534 34.4084L37.1009 34.0887L37.0987 34.0824L36.1534 34.4084ZM36.0128 34.2472L36.4664 33.356L36.4611 33.3533L36.0128 34.2472ZM29.7746 31.1178L30.2231 30.2239L30.212 30.2185L29.7746 31.1178ZM29.6359 31.2453L28.7028 31.6053L28.708 31.6181L29.6359 31.2453ZM30.1703 34.1347L31.1375 34.3884L31.1376 34.388L30.1703 34.1347ZM29.3903 37.1778L30.3594 37.4242L30.3603 37.4206L29.3903 37.1778ZM29.2646 37.2753L29.2665 36.2753L29.2633 36.2753L29.2646 37.2753ZM27.8865 37.2772V38.2772L27.8879 38.2772L27.8865 37.2772ZM27.8003 37.1628L28.7594 37.4458L28.7629 37.4337L27.8003 37.1628ZM28.5484 32.809L29.4045 32.2921L29.3986 32.2827L28.5484 32.809ZM28.4228 32.7828L28.9849 33.6099L28.9867 33.6086L28.4228 32.7828ZM22.1228 34.2622L21.7472 35.189L21.7474 35.189L22.1228 34.2622ZM19.2315 32.7397L18.666 33.5644L18.6728 33.5691L18.6797 33.5736L19.2315 32.7397ZM19.1303 32.7678L18.2313 32.3298L18.2306 32.3312L19.1303 32.7678ZM18.909 33.5759L19.8819 33.3446L19.8818 33.3443L18.909 33.5759ZM19.8278 37.1534L20.7917 36.8875L20.7917 36.8873L19.8278 37.1534ZM19.7434 37.264L19.7559 38.264L19.7598 38.2639L19.7434 37.264ZM18.3915 37.2809L18.379 36.281L18.3733 36.2811L18.3915 37.2809ZM18.2621 37.1834L17.2946 37.4361L17.2953 37.4388L18.2621 37.1834ZM17.3846 33.7053L16.4086 33.9229L16.4089 33.9243L17.3846 33.7053ZM18.0165 31.1534L17.07 30.8306L17.0647 30.8463L17.0599 30.8621L18.0165 31.1534ZM17.9396 31.0878L18.3875 31.9819L18.3973 31.977L18.407 31.9719L17.9396 31.0878ZM11.6809 34.2228L12.1281 35.1172L12.1287 35.1169L11.6809 34.2228ZM11.4728 34.4609L10.5252 34.1414L10.524 34.1449L11.4728 34.4609ZM10.5578 37.2078L11.5032 37.5338L11.5065 37.5238L10.5578 37.2078ZM10.4809 37.2622V36.2622H10.4725L10.4641 36.2623L10.4809 37.2622ZM9.13838 37.2847V38.2847H9.14676L9.15513 38.2845L9.13838 37.2847ZM9.04838 37.1703L8.07863 36.9261L8.07731 36.9315L9.04838 37.1703ZM10.7321 33.0265L10.2849 32.1321L10.283 32.1331L10.7321 33.0265ZM17.2328 29.7772L17.6798 30.6717L17.6831 30.67L17.2328 29.7772ZM17.3828 29.4415L18.3481 29.1804L18.3469 29.1763L17.3828 29.4415ZM16.4565 24.4259L15.4604 24.5145L15.4612 24.5226L16.4565 24.4259ZM16.2503 24.1953L16.0513 25.1753L16.0565 25.1763L16.2503 24.1953ZM13.1265 22.2622L14.0064 21.787L14.006 21.7863L13.1265 22.2622ZM14.499 19.3184L14.3346 18.332L14.3342 18.3321L14.499 19.3184ZM16.1603 19.459L16.0084 20.4475L16.0188 20.449L16.1603 19.459ZM16.2634 19.3672L15.2635 19.3843L15.2635 19.3847L16.2634 19.3672ZM20.5796 11.779L20.58 12.779L20.5802 12.779L20.5796 11.779ZM26.6265 11.7753L26.6271 12.7753L26.6275 12.7753L26.6265 11.7753ZM29.1821 12.0603L28.8169 12.9912L28.8182 12.9917L29.1821 12.0603ZM31.3478 14.9122L30.3489 14.9591L30.3489 14.9597L31.3478 14.9122ZM31.359 19.3278L30.3599 19.2854L30.3597 19.2908L31.359 19.3278ZM31.4565 19.4215L31.5304 20.4188L31.5332 20.4186L31.4565 19.4215ZM34.4978 20.1659L33.6612 20.7138L33.6613 20.714L34.4978 20.1659ZM34.0328 22.8509L34.7119 23.5849L34.712 23.5848L34.0328 22.8509ZM31.3909 24.1897L31.5798 25.1717L31.5818 25.1713L31.3909 24.1897ZM31.1865 24.4165L32.1826 24.5049L32.1828 24.5022L31.1865 24.4165ZM30.219 29.5597L31.178 29.843L31.1791 29.8395L30.219 29.5597ZM32.9734 20.8259L32.9432 21.8255L32.9541 21.8257L32.9734 20.8259ZM31.3553 21.0247L31.0414 20.0752L31.0409 20.0753L31.3553 21.0247ZM18.9859 21.7578L19.1882 20.7785L19.1871 20.7782L18.9859 21.7578ZM14.8421 20.7809L14.7929 21.7797L14.7932 21.7797L14.8421 20.7809ZM14.3865 21.3903L13.3937 21.5104L13.3946 21.5169L14.3865 21.3903ZM14.454 21.5478L13.6772 22.1776L13.6828 22.1844L14.454 21.5478ZM16.0703 22.5922L16.3458 21.6309L16.3445 21.6305L16.0703 22.5922ZM31.4359 22.6447L31.7253 23.6019L31.4359 22.6447ZM33.1403 20.8972L32.4331 21.6043L32.4397 21.6108L33.1403 20.8972ZM22.9571 33.034L22.8237 34.0251L22.8329 34.0263L22.9571 33.034ZM24.0953 33.1765L23.971 34.1688L23.9762 34.1694L24.0953 33.1765ZM24.3596 32.9422L25.3596 32.943V32.9422H24.3596ZM24.4365 29.1153L24.7801 30.0544L24.7833 30.0532L24.4365 29.1153ZM28.6196 27.559L28.2709 26.6218L28.2691 26.6225L28.6196 27.559ZM29.3265 26.9759L30.3228 27.0616L30.3231 27.0578L29.3265 26.9759ZM29.214 26.9028L28.756 26.0138L28.7506 26.0167L29.214 26.9028ZM23.9415 26.2428L24.6679 25.5555L24.6665 25.554L23.9415 26.2428ZM23.7915 26.2372L24.4514 26.9885L24.4525 26.9875L23.7915 26.2372ZM18.4534 26.9272L18.8893 26.0272L18.8857 26.0254L18.4534 26.9272ZM18.3465 27.0097L19.3268 26.8121L19.3266 26.8112L18.3465 27.0097ZM18.444 27.4934L17.4637 27.691L17.4641 27.6927L18.444 27.4934ZM18.5734 27.6415L18.2423 28.5851L18.2441 28.5858L18.5734 27.6415ZM22.7565 29.1003L22.4272 30.0445L22.43 30.0455L22.7565 29.1003ZM29.8191 30.5724L36.7341 34.0618L37.6351 32.2763L30.7201 28.7869L29.8191 30.5724ZM36.7309 34.0602C36.6618 34.025 36.5881 33.9721 36.5225 33.8978C36.4568 33.8235 36.4133 33.7439 36.3869 33.6707L38.2674 32.9898C38.1547 32.6785 37.9331 32.428 37.6383 32.2779L36.7309 34.0602ZM36.383 33.6598L37.6936 37.4154L39.5819 36.7564L38.2713 33.0008L36.383 33.6598ZM37.6921 37.411C37.6827 37.3837 37.5544 37.019 37.8208 36.6429C38.0889 36.2643 38.4787 36.2659 38.5103 36.2659V38.2659C38.6681 38.2659 39.1422 38.2375 39.4528 37.7989C39.7617 37.3628 39.6341 36.9082 39.5834 36.7608L37.6921 37.411ZM38.5103 36.2659H37.2371V38.2659H38.5103V36.2659ZM37.2371 36.2659C37.3549 36.2659 37.5386 36.2952 37.719 36.4241C37.9004 36.5536 37.9893 36.7202 38.0283 36.8372L36.1309 37.4696C36.1949 37.6616 36.3226 37.8845 36.5565 38.0515C36.7894 38.2178 37.0393 38.2659 37.2371 38.2659V36.2659ZM38.0271 36.8337L37.1009 34.0887L35.2059 34.7281L36.1321 37.4731L38.0271 36.8337ZM37.0987 34.0824C36.9887 33.7633 36.7646 33.5078 36.4664 33.356L35.5591 35.1383C35.4888 35.1025 35.4131 35.0482 35.3458 34.971C35.2784 34.8937 35.2343 34.8106 35.208 34.7344L37.0987 34.0824ZM36.4611 33.3533L30.223 30.2239L29.3262 32.0116L35.5644 35.141L36.4611 33.3533ZM30.212 30.2185C30.0132 30.1218 29.7898 30.0872 29.571 30.1192L29.8604 32.0981C29.6818 32.1242 29.4995 32.096 29.3372 32.017L30.212 30.2185ZM29.571 30.1192C29.3521 30.1512 29.148 30.2484 28.9852 30.398L30.3385 31.8706C30.2056 31.9927 30.039 32.072 29.8604 32.0981L29.571 30.1192ZM28.9852 30.398C28.8223 30.5476 28.7083 30.7428 28.658 30.9581L30.6055 31.4134C30.5644 31.5892 30.4714 31.7485 30.3385 31.8706L28.9852 30.398ZM28.658 30.9581C28.6077 31.1734 28.6233 31.3989 28.7029 31.6053L30.5688 30.8853C30.6338 31.0537 30.6466 31.2378 30.6055 31.4134L28.658 30.9581ZM28.708 31.6181C28.879 32.0438 29.0463 32.4776 29.148 32.901C29.2517 33.3327 29.2619 33.6561 29.2029 33.8813L31.1376 34.388C31.3168 33.7039 31.2304 33.0072 31.0927 32.4339C30.953 31.8523 30.734 31.2961 30.5638 30.8725L28.708 31.6181ZM29.203 33.8809C28.9358 34.8995 28.6748 35.9176 28.4202 36.935L30.3603 37.4206C30.6132 36.4105 30.8722 35.3998 31.1375 34.3884L29.203 33.8809ZM28.4211 36.9314C28.4688 36.7435 28.5779 36.577 28.7311 36.4581L29.9573 38.0381C30.156 37.8839 30.2975 37.6679 30.3594 37.4242L28.4211 36.9314ZM28.7311 36.4581C28.8842 36.3393 29.0726 36.2749 29.2665 36.2753L29.2628 38.2753C29.5143 38.2757 29.7587 38.1923 29.9573 38.0381L28.7311 36.4581ZM29.2633 36.2753L27.8851 36.2772L27.8879 38.2772L29.266 38.2753L29.2633 36.2753ZM27.8865 36.2772C27.951 36.2772 28.3309 36.2852 28.6034 36.6465C28.8779 37.0105 28.7786 37.3808 28.7594 37.4458L26.8411 36.8798C26.7994 37.021 26.7033 37.4485 27.0065 37.8507C27.3077 38.2501 27.742 38.2772 27.8865 38.2772V36.2772ZM28.7629 37.4337C28.9583 36.7391 29.27 35.7559 29.464 34.9108C29.5626 34.4812 29.6441 34.0348 29.6663 33.6272C29.6861 33.2615 29.6727 32.7365 29.4044 32.2922L27.6923 33.3259C27.634 33.2294 27.6846 33.2359 27.6692 33.5186C27.6561 33.7594 27.6031 34.078 27.5147 34.4634C27.3346 35.2481 27.0622 36.094 26.8376 36.8919L28.7629 37.4337ZM29.3986 32.2827C29.3028 32.1279 29.0864 31.8656 28.6971 31.7842C28.3093 31.7032 28.0071 31.8557 27.8588 31.957L28.9867 33.6086C28.8897 33.6749 28.634 33.8142 28.288 33.742C27.9406 33.6694 27.7614 33.4376 27.6981 33.3354L29.3986 32.2827ZM27.8606 31.9557C26.0231 33.2046 24.2098 34.0286 22.4981 33.3353L21.7474 35.189C24.5169 36.3107 27.1586 34.851 28.9849 33.6098L27.8606 31.9557ZM22.4983 33.3353C21.5449 32.9491 20.6402 32.4727 19.7833 31.9057L18.6797 33.5736C19.6478 34.2142 20.6706 34.7527 21.7472 35.189L22.4983 33.3353ZM19.797 31.9149C19.6584 31.8199 19.328 31.6434 18.9057 31.7607C18.4915 31.8757 18.3002 32.1883 18.2313 32.3298L20.0292 33.2058C19.9841 33.2985 19.8215 33.582 19.441 33.6877C19.0525 33.7956 18.7608 33.6294 18.666 33.5644L19.797 31.9149ZM18.2306 32.3312C18.1235 32.552 18.0308 32.7756 17.9717 32.9917C17.9184 33.1861 17.8598 33.4866 17.9362 33.8075L19.8818 33.3443C19.9036 33.4357 19.8999 33.5009 19.8982 33.5214C19.8963 33.5438 19.8938 33.5451 19.9007 33.5198C19.9153 33.4665 19.952 33.3648 20.0299 33.2043L18.2306 32.3312ZM17.9361 33.8072C18.2239 35.0176 18.5331 36.2217 18.8638 37.4195L20.7917 36.8873C20.4674 35.7126 20.1641 34.5317 19.8819 33.3446L17.9361 33.8072ZM18.8638 37.4193C18.8424 37.3417 18.7582 36.9809 19.0265 36.629C19.2908 36.2826 19.6539 36.2654 19.727 36.2642L19.7598 38.2639C19.9091 38.2615 20.3244 38.2252 20.6168 37.8419C20.9133 37.4531 20.8332 37.0376 20.7917 36.8875L18.8638 37.4193ZM19.7309 36.2641L18.379 36.281L18.404 38.2808L19.7559 38.264L19.7309 36.2641ZM18.3733 36.2811C18.5004 36.2788 18.7088 36.3076 18.9094 36.4589C19.1105 36.6104 19.1961 36.8035 19.229 36.928L17.2953 37.4388C17.3457 37.6295 17.4616 37.8721 17.7057 38.0561C17.9496 38.2398 18.2139 38.2843 18.4097 38.2807L18.3733 36.2811ZM19.2297 36.9307C18.77 35.171 18.4821 34.0288 18.3604 33.4863L16.4089 33.9243C16.5396 34.5067 16.8367 35.6833 17.2946 37.4361L19.2297 36.9307ZM18.3607 33.4877C18.3751 33.5526 18.3555 33.5249 18.3903 33.3318C18.4198 33.1681 18.4732 32.9639 18.5438 32.7324C18.6136 32.5039 18.6933 32.2704 18.7703 32.0478C18.8432 31.837 18.9216 31.6141 18.9731 31.4447L17.0599 30.8621C17.0224 30.9852 16.9618 31.1581 16.8802 31.3939C16.8027 31.618 16.7123 31.8818 16.6309 32.1488C16.5504 32.4127 16.4715 32.7021 16.4219 32.9775C16.3776 33.2236 16.3322 33.5804 16.4086 33.9229L18.3607 33.4877ZM18.963 31.4762C19.0311 31.2763 19.0377 31.0606 18.9818 30.8569L17.0531 31.386C17.003 31.2034 17.0089 31.0099 17.07 30.8306L18.963 31.4762ZM18.9818 30.8569C18.926 30.6533 18.8102 30.4711 18.6496 30.3339L17.3511 31.8551C17.207 31.7321 17.1032 31.5687 17.0531 31.386L18.9818 30.8569ZM18.6496 30.3339C18.4889 30.1968 18.2908 30.1111 18.081 30.0879L17.8611 32.0757C17.6729 32.0549 17.4952 31.9781 17.3511 31.8551L18.6496 30.3339ZM18.081 30.0879C17.8712 30.0647 17.6591 30.105 17.4723 30.2037L18.407 31.9719C18.2394 32.0604 18.0492 32.0966 17.8611 32.0757L18.081 30.0879ZM17.4918 30.1937L11.233 33.3287L12.1287 35.1169L18.3875 31.9819L17.4918 30.1937ZM11.2337 33.3284C10.8977 33.4963 10.6467 33.7809 10.5252 34.1414L12.4203 34.7804C12.3997 34.8417 12.3631 34.9122 12.3049 34.9788C12.2468 35.0453 12.183 35.0898 12.1281 35.1172L11.2337 33.3284ZM10.524 34.1449L9.609 36.8918L11.5065 37.5238L12.4215 34.7769L10.524 34.1449ZM9.61238 36.8818C9.659 36.7466 9.75866 36.5687 9.95172 36.4321C10.1439 36.2962 10.3425 36.2622 10.4809 36.2622V38.2622C10.658 38.2622 10.8888 38.219 11.1066 38.065C11.3253 37.9103 11.444 37.7052 11.5031 37.5338L9.61238 36.8818ZM10.4641 36.2623L9.12162 36.2848L9.15513 38.2845L10.4976 38.262L10.4641 36.2623ZM9.13838 36.2847C9.21561 36.2847 9.57546 36.2981 9.84268 36.6377C10.1108 36.9784 10.0383 37.3326 10.0194 37.4091L8.07731 36.9315C8.03974 37.0843 7.97286 37.4956 8.27095 37.8745C8.56817 38.2522 8.9824 38.2847 9.13838 38.2847V36.2847ZM10.0181 37.4144C10.1149 37.0299 10.3569 36.1126 10.6534 35.2593C10.8027 34.8297 10.956 34.4451 11.1005 34.1609C11.173 34.0183 11.2314 33.9248 11.2716 33.8712C11.324 33.8015 11.2994 33.8606 11.1813 33.92L10.283 32.1331C9.99428 32.2782 9.79529 32.5065 9.67234 32.6702C9.53728 32.8501 9.41944 33.0543 9.31764 33.2546C9.11348 33.6562 8.92576 34.138 8.76425 34.6028C8.4392 35.5383 8.18056 36.5213 8.07864 36.9261L10.0181 37.4144ZM11.1793 33.921C13.2943 32.8635 15.4611 31.7804 17.6798 30.6717L16.7857 28.8826C14.5669 29.9914 12.4 31.0746 10.2849 32.1321L11.1793 33.921ZM17.6831 30.67C17.8985 30.5614 18.1459 30.3684 18.2892 30.0478C18.4325 29.7271 18.4112 29.4138 18.3481 29.1804L16.4174 29.7026C16.3956 29.6218 16.3699 29.4406 16.4632 29.2318C16.5565 29.0231 16.7083 28.9217 16.7824 28.8843L17.6831 30.67ZM18.3469 29.1763C17.9096 27.5865 17.6113 25.971 17.4518 24.3292L15.4612 24.5226C15.6317 26.2783 15.9509 28.0065 16.4186 29.7068L18.3469 29.1763ZM17.4526 24.3373C17.4286 24.0677 17.3184 23.8121 17.137 23.6093L15.6462 24.9426C15.5392 24.8229 15.4745 24.6726 15.4604 24.5145L17.4526 24.3373ZM17.137 23.6093C16.9555 23.4064 16.7125 23.2672 16.444 23.2142L16.0565 25.1763C15.8971 25.1449 15.7533 25.0623 15.6462 24.9426L17.137 23.6093ZM16.4492 23.2153C15.9866 23.1214 15.4461 22.9312 14.9736 22.6617C14.49 22.3859 14.1626 22.0763 14.0064 21.787L12.2466 22.7373C12.6473 23.4793 13.323 24.0228 13.9827 24.399C14.6535 24.7815 15.3964 25.0423 16.0513 25.1753L16.4492 23.2153ZM14.006 21.7863C13.8015 21.4082 13.8148 21.0603 13.9229 20.8191C14.0256 20.5902 14.2491 20.374 14.6638 20.3047L14.3342 18.3321C13.2901 18.5065 12.4871 19.1332 12.098 20.0007C11.7145 20.8559 11.7709 21.858 12.247 22.738L14.006 21.7863ZM14.6634 20.3048C14.769 20.2872 14.9343 20.2877 15.1875 20.3187C15.4577 20.3518 15.6786 20.3968 16.0084 20.4474L16.3121 18.4706C16.0926 18.4369 15.7303 18.3703 15.431 18.3336C15.1146 18.2948 14.724 18.2671 14.3346 18.332L14.6634 20.3048ZM16.0188 20.449C16.1883 20.4732 16.5707 20.4869 16.9037 20.1902C17.2345 19.8955 17.2662 19.517 17.2632 19.3496L15.2635 19.3847C15.2618 19.2885 15.2769 18.961 15.5733 18.6969C15.872 18.4308 16.2022 18.4549 16.3017 18.4691L16.0188 20.449ZM17.2632 19.35C17.246 18.3487 17.1877 17.5658 17.1866 16.661C17.1855 15.8099 17.2442 15.0939 17.421 14.5155C17.5905 13.9613 17.857 13.5677 18.2723 13.2934C18.7062 13.0069 19.4102 12.7795 20.58 12.779L20.5793 10.779C19.171 10.7795 18.0387 11.0509 17.1701 11.6245C16.2831 12.2103 15.7812 13.0384 15.5084 13.9307C15.243 14.7989 15.1855 15.7544 15.1866 16.6635C15.1876 17.5188 15.2498 18.5846 15.2635 19.3843L17.2632 19.35ZM20.5802 12.779C22.5952 12.7778 24.6109 12.7765 26.6271 12.7753L26.6259 10.7753C24.6096 10.7765 22.594 10.7778 20.579 10.779L20.5802 12.779ZM26.6275 12.7753C27.8409 12.774 28.5223 12.8756 28.8169 12.9912L29.5473 11.1294C28.867 10.8624 27.8446 10.774 26.6255 10.7753L26.6275 12.7753ZM28.8182 12.9917C29.6943 13.334 30.3087 14.1054 30.3489 14.9591L32.3466 14.8652C32.263 13.0864 31.0213 11.7053 29.5461 11.1289L28.8182 12.9917ZM30.3489 14.9597C30.4175 16.3997 30.4211 17.8416 30.3599 19.2854L32.3581 19.3702C32.4219 17.8665 32.418 16.3646 32.3466 14.8646L30.3489 14.9597ZM30.3597 19.2908C30.3532 19.4665 30.3825 19.8285 30.6884 20.1227C30.9938 20.4164 31.356 20.4317 31.5304 20.4188L31.3826 18.4243C31.4895 18.4163 31.8017 18.4186 32.0746 18.681C32.3481 18.9439 32.3623 19.2566 32.3583 19.3648L30.3597 19.2908ZM31.5332 20.4186C32.2273 20.3652 32.6217 20.2928 33.0238 20.337C33.3127 20.3688 33.4904 20.4531 33.6612 20.7138L35.3343 19.6181C34.7757 18.765 34.0056 18.433 33.2426 18.349C32.5928 18.2775 31.8314 18.3897 31.3798 18.4245L31.5332 20.4186ZM33.6613 20.714C33.8963 21.0726 33.829 21.6769 33.3535 22.117L34.712 23.5848C35.6952 22.6749 36.2467 21.0105 35.3342 19.6178L33.6613 20.714ZM33.3536 22.1169C32.738 22.6865 32.0265 23.0472 31.1999 23.2081L31.5818 25.1713C32.7727 24.9396 33.8225 24.4078 34.7119 23.5849L33.3536 22.1169ZM31.202 23.2077C30.934 23.2592 30.6902 23.3968 30.5076 23.5995L31.9936 24.9381C31.8848 25.0589 31.7395 25.1409 31.5798 25.1716L31.202 23.2077ZM30.5076 23.5995C30.325 23.8022 30.2136 24.059 30.1902 24.3308L32.1828 24.5022C32.1689 24.6642 32.1025 24.8173 31.9936 24.9381L30.5076 23.5995ZM30.1904 24.3282C30.0412 26.011 29.7307 27.6612 29.2589 29.2798L31.1791 29.8395C31.6873 28.0956 32.0219 26.3171 32.1826 24.5049L30.1904 24.3282ZM29.26 29.2763C29.2076 29.4538 29.1745 29.7267 29.2981 30.0196C29.4233 30.3163 29.6468 30.4863 29.8224 30.5741L30.7168 28.7852C30.8424 28.848 31.0325 28.9855 31.1408 29.2422C31.2475 29.4951 31.2142 29.7205 31.178 29.843L29.26 29.2763ZM33.0035 19.8264C32.2977 19.8051 31.6366 19.8784 31.0414 20.0752L31.6691 21.9741C31.9889 21.8684 32.4065 21.8093 32.9432 21.8255L33.0035 19.8264ZM31.0409 20.0753C27.1285 21.3707 23.1835 21.6039 19.1882 20.7785L18.7836 22.7371C23.1258 23.6342 27.427 23.3786 31.6696 21.974L31.0409 20.0753ZM19.1871 20.7782C18.6798 20.674 18.0135 20.4654 17.213 20.2427C16.4723 20.0365 15.6111 19.8174 14.891 19.7821L14.7932 21.7797C15.26 21.8026 15.9185 21.9584 16.6768 22.1695C17.3754 22.3639 18.1876 22.6147 18.7846 22.7373L19.1871 20.7782ZM14.8914 19.7821C14.5264 19.7641 14.0097 19.8551 13.6611 20.3213C13.3549 20.7308 13.357 21.2062 13.3937 21.5104L15.3793 21.2702C15.3648 21.1506 15.4172 21.3125 15.2629 21.5189C15.1771 21.6336 15.0643 21.7092 14.9578 21.7482C14.8625 21.7831 14.7976 21.7799 14.7929 21.7797L14.8914 19.7821ZM13.3946 21.5169C13.4257 21.7612 13.5233 21.9877 13.6772 22.1776L15.2308 20.918C15.3097 21.0154 15.3623 21.1369 15.3785 21.2636L13.3946 21.5169ZM13.6828 22.1844C14.2366 22.8552 14.9513 23.3129 15.796 23.5538L16.3445 21.6305C15.8742 21.4964 15.5114 21.2578 15.2252 20.9111L13.6828 22.1844ZM15.7947 23.5535C21.0405 25.0569 26.441 25.1994 31.7253 23.6019L31.1465 21.6874C26.272 23.1611 21.2663 23.0411 16.3458 21.6309L15.7947 23.5535ZM31.7253 23.6019C32.0979 23.4892 32.8096 23.1812 33.3609 22.7749C33.6217 22.5826 33.9768 22.2759 34.1672 21.8511C34.2718 21.6177 34.3392 21.3194 34.2792 20.9883C34.2189 20.6551 34.0472 20.3861 33.8408 20.1835L32.4397 21.6108C32.4119 21.5835 32.3385 21.4953 32.3113 21.3449C32.2844 21.1965 32.3197 21.083 32.3422 21.033C32.3682 20.975 32.3583 21.0293 32.1743 21.1649C31.8359 21.4143 31.3383 21.6295 31.1465 21.6874L31.7253 23.6019ZM33.8474 20.1901C33.6195 19.9622 33.3179 19.8323 32.9926 19.8261L32.9541 21.8257C32.8679 21.8241 32.7701 21.8066 32.6712 21.7643C32.5723 21.7221 32.4929 21.664 32.4331 21.6043L33.8474 20.1901ZM21.8596 29.2465V32.9234H23.8596V29.2465H21.8596ZM21.8596 32.9234C21.8596 33.1195 21.9106 33.4078 22.1338 33.661C22.3559 33.913 22.6333 33.9995 22.8237 34.0251L23.0905 32.043C23.216 32.0599 23.4446 32.1235 23.6342 32.3386C23.8249 32.555 23.8596 32.7923 23.8596 32.9234H21.8596ZM22.8329 34.0263L23.971 34.1688L24.2195 32.1843L23.0814 32.0418L22.8329 34.0263ZM23.9762 34.1694C24.1496 34.1902 24.3255 34.174 24.4922 34.1219L23.8955 32.213C23.9985 32.1808 24.1072 32.1708 24.2143 32.1836L23.9762 34.1694ZM24.4922 34.1219C24.659 34.0698 24.8128 33.9829 24.9435 33.867L23.6167 32.3705C23.6975 32.2989 23.7925 32.2452 23.8955 32.213L24.4922 34.1219ZM24.9435 33.867C25.0742 33.7512 25.1788 33.6089 25.2506 33.4496L23.427 32.6283C23.4713 32.5299 23.536 32.442 23.6167 32.3705L24.9435 33.867ZM25.2506 33.4496C25.3223 33.2903 25.3595 33.1177 25.3596 32.943L23.3596 32.9413C23.3597 32.8334 23.3827 32.7268 23.427 32.6283L25.2506 33.4496ZM25.3596 32.9422V29.224H23.3596V32.9422H25.3596ZM25.3596 29.224C25.3596 29.3595 25.3252 29.5501 25.1954 29.7338C25.0665 29.9162 24.901 30.0102 24.7801 30.0544L24.0929 28.1762C23.9208 28.2391 23.7169 28.3606 23.5623 28.5793C23.4068 28.7992 23.3596 29.0348 23.3596 29.224H25.3596ZM24.7833 30.0532C26.1808 29.5365 27.5764 29.0173 28.9702 28.4956L28.2691 26.6225C26.8778 27.1433 25.4847 27.6616 24.0897 28.1773L24.7833 30.0532ZM28.9684 28.4963C29.0625 28.4612 29.0434 28.472 29.1958 28.4179C29.2926 28.3835 29.4421 28.327 29.5942 28.2359C29.7544 28.14 29.9359 27.9955 30.0808 27.7761C30.2277 27.5537 30.3017 27.3079 30.3228 27.0616L28.3302 26.8902C28.3335 26.8511 28.3506 26.7668 28.4119 26.6738C28.4714 26.5839 28.5388 26.5367 28.567 26.5198C28.5873 26.5077 28.5868 26.5118 28.5264 26.5332C28.4971 26.5436 28.4679 26.5533 28.422 26.5688C28.3805 26.5828 28.327 26.6009 28.2709 26.6218L28.9684 28.4963ZM30.3231 27.0578C30.3298 26.9763 30.3344 26.8337 30.2916 26.6689C30.2466 26.4953 30.1297 26.2332 29.849 26.0507C29.5709 25.87 29.288 25.869 29.1181 25.8947C28.9544 25.9194 28.8278 25.9768 28.756 26.0138L29.672 27.7918C29.6414 27.8075 29.5505 27.852 29.4168 27.8722C29.2769 27.8934 29.0184 27.8962 28.759 27.7276C28.4971 27.5574 28.3933 27.3158 28.3557 27.1712C28.3205 27.0352 28.3269 26.9299 28.3299 26.894L30.3231 27.0578ZM28.7506 26.0167C27.2927 26.7791 25.7041 26.6507 24.6679 25.5555L23.2151 26.93C25.0102 28.8274 27.6291 28.8602 29.6774 27.7889L28.7506 26.0167ZM24.6665 25.554C24.5321 25.4126 24.2774 25.2185 23.9058 25.2046C23.5377 25.1908 23.2719 25.3622 23.1305 25.4868L24.4525 26.9875C24.3636 27.0658 24.1491 27.2151 23.8309 27.2032C23.5093 27.1911 23.3034 27.023 23.2165 26.9315L24.6665 25.554ZM23.1316 25.4858C22.451 26.0836 21.7846 26.3885 21.1269 26.4735C20.4676 26.5588 19.7297 26.4342 18.8893 26.0272L18.0175 27.8271C19.1333 28.3676 20.2632 28.6018 21.3833 28.457C22.505 28.312 23.5295 27.7982 24.4514 26.9885L23.1316 25.4858ZM18.8857 26.0254C18.8158 25.9919 18.6874 25.9369 18.5224 25.9158C18.3554 25.8944 18.0407 25.8968 17.7472 26.1234C17.4525 26.3509 17.3705 26.6564 17.3495 26.8261C17.3289 26.9927 17.351 27.1319 17.3664 27.2082L19.3266 26.8112C19.332 26.838 19.3511 26.9367 19.3344 27.0718C19.3173 27.21 19.2462 27.4928 18.9693 27.7066C18.6935 27.9194 18.4036 27.9169 18.2683 27.8996C18.1351 27.8825 18.0453 27.8405 18.021 27.8289L18.8857 26.0254ZM17.3662 27.2072L17.4637 27.691L19.4243 27.2958L19.3268 26.8121L17.3662 27.2072ZM17.4641 27.6927C17.5495 28.1129 17.8402 28.444 18.2423 28.5851L18.9045 26.6979C19.0068 26.7338 19.1324 26.8039 19.2408 26.9279C19.3492 27.0521 19.4021 27.1865 19.4239 27.2941L17.4641 27.6927ZM18.2441 28.5858L22.4272 30.0445L23.0858 28.156L18.9027 26.6973L18.2441 28.5858ZM22.43 30.0455C22.3104 30.0042 22.1447 29.9126 22.0166 29.7309C21.8893 29.5504 21.8596 29.3667 21.8596 29.2465H23.8596C23.8596 29.0526 23.8128 28.8077 23.6511 28.5784C23.4886 28.3479 23.2713 28.2201 23.083 28.1551L22.43 30.0455Z" fill="black" mask="url(#path-2-inside-1_244_1094)"/>
</g>
<defs>
<clipPath id="clip0_244_1094">
<rect width="48" height="48" fill="white" transform="translate(0 0.892212)"/>
</clipPath>
</defs>
</svg>
