<svg width="49" height="49" viewBox="0 0 49 49" fill="none" xmlns="http://www.w3.org/2000/svg">
<g clip-path="url(#clip0_244_1046)">
<path d="M10.4096 0.892212H38.1096C43.8096 0.892212 48.3096 5.39221 48.3096 10.9922V38.6922C48.3096 44.3922 43.8096 48.8922 38.2096 48.8922H10.4096C4.80957 48.8922 0.30957 44.3922 0.30957 38.7922V10.9922C0.30957 5.39221 4.80957 0.892212 10.4096 0.892212Z" fill="#93E9BE"/>
<path d="M33.3094 36.3922C33.2094 36.3922 33.0094 36.3922 32.9094 36.2922L28.0094 31.2922C27.8094 31.0922 27.8094 30.7922 28.0094 30.5922C28.2094 30.3922 28.5094 30.3922 28.7094 30.5922L33.6094 35.5922C33.8094 35.7922 33.8094 36.0922 33.6094 36.2922C33.5094 36.2922 33.4094 36.3922 33.3094 36.3922ZM34.7094 34.9922C34.6094 34.9922 34.4094 34.9922 34.3094 34.8922L29.4094 29.8922C29.2094 29.6922 29.2094 29.3922 29.4094 29.1922C29.6094 28.9922 29.9094 28.9922 30.1094 29.1922L35.0094 34.1922C35.2094 34.3922 35.2094 34.6922 35.0094 34.8922C34.9094 34.8922 34.8094 34.9922 34.7094 34.9922Z" fill="black"/>
<path d="M33.3092 38.3923C32.7092 38.3923 32.0092 38.1923 31.5092 37.6923L25.1092 31.2923C25.0092 31.1923 25.0092 31.0923 25.0092 30.8923C25.0092 30.6923 25.1092 30.5923 25.1092 30.4923L29.3092 26.2923C29.5092 26.0923 29.8092 26.0923 30.0092 26.2923L36.4092 32.6923C36.9092 33.1923 37.1092 33.7923 37.1092 34.4923C37.1092 35.1923 36.8092 35.7923 36.4092 36.2923L35.0092 37.6923C34.6092 38.0923 33.9092 38.3923 33.3092 38.3923ZM26.2092 30.8923L32.2092 36.8923C32.8092 37.4923 33.7092 37.4923 34.3092 36.8923L35.7092 35.4923C36.0092 35.1923 36.1092 34.7923 36.1092 34.3923C36.1092 33.9923 35.9092 33.5923 35.7092 33.2923L29.7092 27.2923L26.2092 30.8923ZM24.1092 27.1923C24.0092 27.1923 23.8092 27.1923 23.7092 27.0923L13.8092 17.1923C13.6092 16.9923 13.6092 16.6923 13.8092 16.4923L15.2092 15.0923C15.4092 14.8923 15.7092 14.8923 15.9092 15.0923L25.8092 24.9923C26.0092 25.1923 26.0092 25.4923 25.8092 25.6923L24.4092 27.0923C24.3092 27.0923 24.2092 27.1923 24.1092 27.1923ZM14.9092 16.7923L24.1092 25.9923L24.8092 25.2923L15.6092 16.0923L14.9092 16.7923Z" fill="black"/>
<path d="M16.8098 38.6922C16.7098 38.6922 16.5098 38.6922 16.4098 38.5922L15.0098 37.1922C14.8098 36.9922 14.8098 36.6922 15.0098 36.4922L17.6098 33.8922L17.0098 31.6922L14.8098 31.0922L12.2098 33.6922C12.0098 33.8922 11.7098 33.8922 11.5098 33.6922L10.1098 32.2922C10.0098 32.1922 10.0098 32.0922 10.0098 31.8922C10.0098 31.6922 10.1098 31.5922 10.1098 31.4922L13.8098 27.7922C13.9098 27.6922 14.1098 27.5922 14.3098 27.6922L17.3098 28.4922L21.6098 24.1922C21.8098 23.9922 22.1098 23.9922 22.3098 24.1922L24.1098 25.9922L24.8098 25.2922L23.0098 23.4922C22.8098 23.2922 22.8098 22.9922 23.0098 22.7922L27.4098 18.3922L26.6098 15.3922C26.6098 15.1922 26.6098 14.9922 26.7098 14.8922L30.4098 11.1922C30.6098 10.9922 30.9098 10.9922 31.1098 11.1922L32.5098 12.5922C32.7098 12.7922 32.7098 13.0922 32.5098 13.2922L29.9098 15.8922L30.5098 18.0922L32.7098 18.6922L35.3098 16.0922C35.5098 15.8922 35.8098 15.8922 36.0098 16.0922L37.4098 17.4922C37.5098 17.5922 37.5098 17.6922 37.5098 17.8922C37.5098 18.0922 37.4098 18.1922 37.4098 18.2922L33.7098 21.9922C33.6098 22.0922 33.4098 22.1922 33.2098 22.0922L30.2098 21.2922L20.2098 31.2922L21.0098 34.2922C21.0098 34.4922 21.0098 34.6922 20.9098 34.7922L17.2098 38.4922C17.1098 38.6922 17.0098 38.6922 16.8098 38.6922ZM16.1098 36.7922L16.8098 37.4922L20.0098 34.2922L19.2098 31.2922C19.2098 31.0922 19.2098 30.8922 19.3098 30.7922L23.4098 26.6922L22.0098 25.2922L17.9098 29.3922C17.8098 29.4922 17.6098 29.5922 17.4098 29.4922L14.4098 28.6922L11.2098 31.8922L11.9098 32.5922L14.3098 30.1922C14.4098 30.0922 14.6098 29.9922 14.8098 30.0922L17.6098 30.7922C17.8098 30.7922 17.9098 30.9922 18.0098 31.1922L18.7098 33.9922C18.7098 34.1922 18.7098 34.3922 18.6098 34.4922L16.1098 36.7922ZM24.1098 23.1922L25.5098 24.5922L29.7098 20.3922C29.8098 20.2922 30.0098 20.1922 30.2098 20.2922L33.2098 21.0922L36.4098 17.8922L35.7098 17.1922L33.3098 19.6922C33.2098 19.7922 33.0098 19.8922 32.8098 19.7922L30.0098 19.0922C29.8098 19.0922 29.7098 18.8922 29.6098 18.6922L28.9098 15.8922C28.9098 15.6922 28.9098 15.4922 29.0098 15.3922L31.4098 12.9922L30.7098 12.2922L27.5098 15.4922L28.3098 18.4922C28.3098 18.6922 28.3098 18.8922 28.2098 18.9922L24.1098 23.1922ZM13.5098 17.5922C13.1098 17.5922 12.7098 17.4922 12.4098 17.1922L10.3098 14.9922C10.2098 14.8922 10.2098 14.7922 10.2098 14.5922C10.2098 14.3922 10.3098 14.2922 10.3098 14.1922L13.1098 11.3922C13.2098 11.2922 13.3098 11.2922 13.5098 11.2922C13.6098 11.2922 13.8098 11.3922 13.9098 11.3922L16.0098 13.4922C16.3098 13.7922 16.4098 14.1922 16.4098 14.5922C16.4098 14.9922 16.2098 15.3922 16.0098 15.6922L14.6098 17.0922C14.3098 17.3922 13.9098 17.5922 13.5098 17.5922ZM11.4098 14.6922L13.2098 16.4922C13.4098 16.6922 13.7098 16.6922 13.9098 16.4922L15.3098 15.0922C15.4098 14.9922 15.4098 14.8922 15.4098 14.6922C15.4098 14.5922 15.3098 14.3922 15.3098 14.2922L13.5098 12.4922L11.4098 14.6922Z" fill="black"/>
<path d="M25.5094 31.3922C25.4094 31.3922 25.2094 31.3922 25.1094 31.2922C24.9094 31.0922 24.9094 30.7922 25.1094 30.5922C25.2094 30.4922 25.2094 30.3922 25.2094 30.2922C25.2094 30.1922 25.1094 29.9922 25.1094 29.8922C24.9094 29.6922 24.6094 29.6922 24.4094 29.8922C24.2094 30.0922 23.9094 30.0922 23.7094 29.8922C23.6094 29.7922 23.6094 29.6922 23.6094 29.4922C23.6094 29.2922 23.6094 29.1922 23.7094 29.0922L27.9094 24.8922C28.1094 24.6922 28.4094 24.6922 28.6094 24.8922C28.7094 24.9922 28.7094 25.0922 28.7094 25.2922C28.7094 25.4922 28.7094 25.5922 28.6094 25.6922C28.4094 25.8922 28.4094 26.1922 28.6094 26.3922C28.8094 26.5922 29.1094 26.5922 29.3094 26.3922C29.5094 26.1922 29.8094 26.1922 30.0094 26.3922C30.2094 26.5922 30.2094 26.8922 30.0094 27.0922L25.8094 31.2922C25.8094 31.3922 25.6094 31.3922 25.5094 31.3922ZM25.4094 28.8922C25.5094 28.9922 25.7094 29.0922 25.8094 29.1922C25.9094 29.2922 26.0094 29.4922 26.1094 29.5922L28.3094 27.3922C28.2094 27.2922 28.0094 27.1922 27.9094 27.0922C27.8094 26.9922 27.7094 26.7922 27.6094 26.6922L25.4094 28.8922Z" fill="black"/>
<path d="M24.1092 29.9923C24.0092 29.9923 23.8092 29.9923 23.7092 29.8923L22.3092 28.4923C22.1092 28.2923 22.1092 27.9923 22.3092 27.7923L26.5092 23.5923C26.7092 23.3923 27.0092 23.3923 27.2092 23.5923L28.6092 24.9923C28.8092 25.1923 28.8092 25.4923 28.6092 25.6923L24.4092 29.8923C24.3092 29.9923 24.2092 29.9923 24.1092 29.9923ZM23.4092 28.0923L24.1092 28.7923L27.6092 25.2923L26.9092 24.5923L23.4092 28.0923Z" fill="black"/>
</g>
<defs>
<clipPath id="clip0_244_1046">
<rect width="48" height="48" fill="white" transform="translate(0.30957 0.892212)"/>
</clipPath>
</defs>
</svg>
