<svg width="49" height="49" viewBox="0 0 49 49" fill="none" xmlns="http://www.w3.org/2000/svg">
<g clip-path="url(#clip0_244_1306)">
<path d="M10.7191 0.892212H38.4191C44.1191 0.892212 48.6191 5.39221 48.6191 10.9922V38.6922C48.6191 44.3922 44.1191 48.8922 38.5191 48.8922H10.7191C5.11914 48.8922 0.619141 44.3922 0.619141 38.7922V10.9922C0.619141 5.39221 5.11914 0.892212 10.7191 0.892212Z" fill="#93E9BE"/>
<path d="M29.0177 11.4214C30.3078 12.2289 31.3592 13.2861 32.1721 14.5928C32.194 14.6271 32.2252 14.6438 32.2657 14.6429C32.8043 14.6236 33.6607 14.6196 34.8347 14.631C36.232 14.6442 37.4025 15.3863 37.8704 16.6755C37.9987 17.0305 38.0629 17.6061 38.0629 18.4022C38.0647 23.4384 38.0651 28.475 38.0642 33.512C38.0642 33.5648 38.0906 33.5929 38.1433 33.5964C38.4056 33.6149 38.6877 33.5766 38.9144 33.6399C40.4329 34.0577 39.9307 37.104 39.3323 38.053C38.8771 38.8088 38.2378 39.3395 37.4144 39.6453C36.4613 39.9406 35.4675 39.8918 34.5382 39.8852C27.3898 39.8417 20.2375 39.8299 13.0892 39.8655C12.7293 39.8668 12.38 39.7982 12.0307 39.735C11.1642 39.4555 10.463 38.9485 9.92693 38.2138C9.54379 37.5811 9.34783 36.9735 9.33904 36.3909C9.32058 35.0753 9.07804 33.3881 11.0526 33.6122C11.1018 33.6184 11.1265 33.5964 11.1265 33.5463C11.1458 29.6033 11.1493 25.663 11.137 21.7252C11.133 20.6655 11.0421 18.6803 11.1673 17.2884C11.2165 16.7427 11.4494 16.2356 11.8659 15.7673C13.6784 15.6513 15.5001 15.7884 17.3204 15.7119C17.3653 15.7101 17.4079 15.7185 17.4483 15.7369C17.4879 15.7554 17.53 15.7633 17.5749 15.7607C17.8218 15.7449 17.8231 15.722 17.5788 15.6921C17.4725 15.6789 17.3147 15.6732 17.1056 15.675C15.4465 15.682 13.7874 15.6807 12.1282 15.671C12.0852 15.671 12.0637 15.6495 12.0637 15.6064V15.5142C13.3278 14.3371 14.924 14.6099 16.8116 14.6231C16.8565 14.6231 16.8921 14.6047 16.9184 14.5678C18.6847 12.0541 20.7832 10.5316 23.927 10.2482C25.1727 10.1362 25.0475 11.4596 24.3225 11.4912C19.9647 11.6784 16.8499 15.2123 16.9237 19.5213C16.924 19.5393 16.9295 19.5569 16.9396 19.5718C16.9497 19.5868 16.9638 19.5985 16.9804 19.6056C16.997 19.6127 17.0152 19.6149 17.033 19.6119C17.0508 19.6088 17.0673 19.6007 17.0805 19.5885C17.679 19.0468 18.4396 19.8495 17.9453 20.4941C17.5063 21.0675 16.9184 22.2762 16.0471 21.6079C15.7466 21.3786 14.7276 20.7182 14.7751 20.3122C14.8226 19.8957 15.0976 19.6861 15.6003 19.6834C15.6108 19.6833 15.6212 19.681 15.6309 19.6767C15.6405 19.6724 15.6492 19.6661 15.6563 19.6584C15.6635 19.6506 15.669 19.6414 15.6725 19.6315C15.676 19.6215 15.6774 19.6109 15.6767 19.6004C15.595 18.3543 15.7817 17.1517 16.2369 15.9927C16.2408 15.983 16.2422 15.9726 16.241 15.9623C16.2398 15.952 16.2361 15.9421 16.2301 15.9335C16.2241 15.9249 16.2161 15.9179 16.2067 15.913C16.1973 15.9082 16.1869 15.9056 16.1763 15.9057C14.4139 15.9043 12.4275 15.5577 12.3879 17.9949C12.38 18.5178 12.3783 19.2792 12.3827 20.2792C12.4077 25.4121 12.351 29.5339 12.3734 33.5371C12.3734 33.5907 12.4007 33.617 12.4552 33.6162C16.0722 33.5503 18.6869 33.5402 20.2995 33.5859C20.6563 33.5964 21.0139 33.7194 21.3724 33.9549C21.9577 34.3372 22.1251 35.0806 22.9384 35.0819C23.8611 35.0846 24.7843 35.0859 25.7079 35.0859C26.0207 35.0859 26.2729 34.9624 26.4645 34.7155C27.3283 34.7313 27.8775 34.7322 28.1122 34.7181C28.28 34.7085 28.3573 34.7643 28.3442 34.8855C27.8538 34.8776 27.6139 35.2665 27.2949 35.683C26.5581 36.6453 24.0483 36.35 22.8962 36.3236C22.079 36.3052 21.5333 36.0877 21.0877 35.4457C21.028 35.1505 20.854 34.9875 20.5657 34.9567L20.2362 34.8803L20.2428 34.7972C20.2472 34.7454 20.2753 34.7208 20.3272 34.7234C20.8245 34.7489 21.3224 34.7414 21.8206 34.701C22.1361 34.6755 22.1357 34.6619 21.8193 34.6601C18.2497 34.6417 14.6802 34.6553 11.1106 34.701C11.0535 34.7019 10.9674 34.6861 10.8523 34.6535C10.6836 34.6061 10.6049 34.6825 10.6163 34.8829C10.4568 36.2986 10.6585 37.8263 12.0663 38.3839C12.3835 38.5095 12.873 38.5732 13.5347 38.575C20.9199 38.5979 28.3051 38.5974 35.6902 38.5737C36.3291 38.5719 36.8045 38.5087 37.1165 38.3839C38.6679 37.7657 38.6007 36.3487 38.5915 34.8908C38.6345 34.8724 38.6569 34.8359 38.6587 34.7814C38.6592 34.769 38.6572 34.7565 38.6527 34.7449C38.6483 34.7332 38.6415 34.7226 38.6327 34.7136C38.624 34.7046 38.6135 34.6975 38.6019 34.6926C38.5902 34.6877 38.5777 34.6852 38.5651 34.6852L26.5857 34.6456C26.5717 34.6456 26.5642 34.6386 26.5633 34.6245C26.5625 34.6122 26.5607 34.6004 26.5581 34.589C27.3068 33.5397 28.1359 33.6056 29.3064 33.5964C31.7977 33.5771 34.2886 33.5656 36.779 33.5621C36.9231 33.1966 36.9359 32.8248 36.8172 32.447C36.812 27.757 36.8098 23.068 36.8106 18.3798C36.812 15.5089 35.0549 15.9057 32.8905 15.9043C32.881 15.9044 32.8717 15.9067 32.8634 15.9111C32.855 15.9156 32.8478 15.922 32.8424 15.9298C32.837 15.9377 32.8335 15.9468 32.8322 15.9563C32.831 15.9659 32.8319 15.9756 32.8351 15.9848C33.6981 18.4154 33.5781 20.774 32.4752 23.0605C31.9823 24.0821 30.8618 23.4784 31.3245 22.5412C33.1857 18.7713 31.7489 14.4649 28.1214 12.4179C28.0836 12.3959 28.0572 12.4056 28.0423 12.4469L27.834 13.0137C27.8173 13.0567 27.7897 13.091 27.751 13.1165C27.0168 13.595 26.8415 12.953 26.5212 12.4838C26.3691 12.0664 26.2193 11.6555 26.0717 11.2513C25.808 10.5277 27.7576 9.96877 28.0805 9.90945C28.8872 9.76314 28.9611 10.5791 28.7488 11.1828C28.733 11.2293 28.7466 11.2649 28.7897 11.2895L29.0177 11.4214ZM34.1941 15.4272L34.2139 14.8182C34.2148 14.7954 34.2033 14.7839 34.1796 14.7839C34.1673 14.7839 34.1546 14.7839 34.1414 14.7839C34.1238 14.7831 34.1168 14.7914 34.1203 14.809C34.1598 14.9795 34.1541 15.1477 34.1032 15.3138C34.09 15.3578 34.1018 15.3933 34.1388 15.4206L34.1664 15.4404C34.184 15.4535 34.1932 15.4491 34.1941 15.4272ZM34.0689 15.7541C34.2218 15.7963 34.4722 15.7264 34.5856 15.7277C35.3642 15.7427 36.1428 15.7418 36.9214 15.7251C36.9328 15.7251 36.9398 15.7211 36.9425 15.7132C36.9442 15.7088 36.9447 15.704 36.9438 15.6987C36.942 15.6829 36.9306 15.675 36.9095 15.675C35.1274 15.6737 33.3255 15.617 31.5459 15.6921C31.1031 15.7106 31.1031 15.7224 31.5459 15.7277C32.3193 15.7356 33.0917 15.7321 33.8633 15.7172C33.9116 15.7163 33.9801 15.7286 34.0689 15.7541ZM15.1521 33.9628C15.1459 34.114 15.1516 34.2656 15.1692 34.4176C15.1859 34.5661 15.2022 34.5661 15.218 34.4176C15.2408 34.1909 15.2356 33.9637 15.2022 33.7361C15.2014 33.7285 15.198 33.7213 15.1925 33.7159C15.187 33.7105 15.1798 33.7072 15.1721 33.7066C15.1644 33.706 15.1568 33.7081 15.1505 33.7125C15.1442 33.7169 15.1396 33.7234 15.1376 33.7308C15.127 33.7695 15.1244 33.8051 15.1297 33.8376C15.1446 33.9202 15.1521 33.962 15.1521 33.9628ZM34.1875 34.4585C34.2148 34.2326 34.22 34.0059 34.2033 33.7783C34.2033 33.7739 34.2011 33.7713 34.1968 33.7704L34.1533 33.7651C34.1427 33.7634 34.1374 33.7682 34.1374 33.7796L34.1453 34.4571C34.1452 34.4627 34.1472 34.4682 34.1511 34.4722C34.1549 34.4763 34.1602 34.4787 34.1658 34.4789C34.1714 34.4791 34.1768 34.477 34.1809 34.4732C34.185 34.4693 34.1874 34.4641 34.1875 34.4585ZM24.6402 35.3614L24.6309 36.0152C24.63 36.06 24.6463 36.0679 24.6797 36.0389C24.743 35.9835 24.7087 35.4945 24.7126 35.3706C24.7135 35.3548 24.7056 35.3469 24.6889 35.3469C24.6784 35.3469 24.6674 35.3469 24.656 35.3469C24.6463 35.3469 24.641 35.3517 24.6402 35.3614Z" fill="black"/>
<path d="M24.6525 22.4238C24.7527 22.0951 24.7646 21.7651 24.6881 21.4338C24.6661 21.3381 24.6534 21.3394 24.6499 21.4378L24.6196 22.4238C23.3893 22.4299 22.159 22.4317 20.9287 22.429C20.6818 22.4282 20.5052 22.2906 20.3988 22.0165C20.2943 21.1816 20.3703 20.3525 20.6269 19.5291C21.0654 18.6196 21.7152 17.9206 22.5764 17.432C22.6142 17.4109 22.6217 17.3823 22.5988 17.3463C21.873 16.196 21.8862 15.1762 22.6384 14.2869C24.6828 11.8721 28.2801 14.7443 26.3701 17.3213C26.3411 17.3608 26.3477 17.3924 26.3898 17.4162C27.6746 18.1411 28.4005 19.2268 28.5674 20.6733C28.6294 21.2084 28.7994 22.0191 28.2933 22.3882C28.2572 22.4137 28.2168 22.4264 28.172 22.4264L24.6525 22.4238ZM24.6327 14.4214C24.6331 14.4278 24.6358 14.4339 24.6402 14.4386C24.6447 14.4434 24.6506 14.4464 24.657 14.4471C24.6634 14.4479 24.6699 14.4464 24.6754 14.4429C24.6808 14.4394 24.6849 14.4341 24.6868 14.4279C24.7439 14.1687 24.7479 13.9011 24.6987 13.6252C24.6776 13.5083 24.6648 13.5092 24.6604 13.6278L24.6327 14.4214ZM23.3884 15.5629C23.0149 15.6701 22.6116 15.7105 22.1783 15.6841C19.042 15.4917 19.0526 15.5057 22.21 15.7263C22.5342 15.7492 22.8563 15.7487 23.1762 15.725C23.2245 15.7215 23.2575 15.7426 23.275 15.7883L23.395 16.102C23.5215 16.493 23.7513 16.7496 24.0844 16.8718C25.7057 17.4702 26.2949 14.7917 24.5668 14.6639C23.9886 14.6217 23.5958 14.9214 23.3884 15.5629ZM26.6139 15.6762C26.2686 15.6578 25.9975 15.66 25.8006 15.6828C25.5423 15.7118 25.5431 15.7276 25.8033 15.7303C26.1275 15.7329 26.3978 15.7285 26.6139 15.7171C26.8556 15.703 26.8556 15.6894 26.6139 15.6762ZM24.6604 17.1512C24.642 17.4148 24.7 17.7971 24.6301 18.0396C24.6275 18.0502 24.6314 18.0537 24.642 18.0502C24.6534 18.0467 24.6644 18.0427 24.6749 18.0383C24.6916 18.0313 24.7013 18.019 24.7039 18.0014C24.7356 17.7185 24.736 17.4351 24.7052 17.1512C24.6868 16.9834 24.6718 16.9834 24.6604 17.1512ZM27.3376 21.0951C27.2704 17.3503 21.7275 17.3318 21.6221 21.1083C21.6203 21.154 21.6427 21.1768 21.6893 21.1768H27.2572C27.3117 21.1768 27.3385 21.1496 27.3376 21.0951Z" fill="black"/>
<path d="M35.7622 29.833C35.7622 30.0015 35.6953 30.1631 35.5761 30.2822C35.457 30.4014 35.2954 30.4683 35.1269 30.4683H14.0602C13.8916 30.4683 13.73 30.4014 13.6109 30.2822C13.4917 30.1631 13.4248 30.0015 13.4248 29.833V29.8198C13.4248 29.6513 13.4917 29.4897 13.6109 29.3705C13.73 29.2514 13.8916 29.1844 14.0602 29.1844H35.1269C35.2954 29.1844 35.457 29.2514 35.5761 29.3705C35.6953 29.4897 35.7622 29.6513 35.7622 29.8198V29.833ZM15.1845 30.235C15.2671 29.9178 15.272 29.6106 15.199 29.3136C15.1744 29.2161 15.1621 29.2178 15.1621 29.3189V30.2324C15.1621 30.293 15.1696 30.2939 15.1845 30.235ZM24.6423 29.3374L24.6581 30.206C24.6599 30.3132 24.6717 30.3141 24.6937 30.2086C24.7526 29.9274 24.7508 29.6353 24.6884 29.3321C24.655 29.1686 24.6396 29.1704 24.6423 29.3374ZM34.1712 30.2337C34.2257 29.9428 34.2336 29.673 34.1949 29.4244C34.1853 29.362 34.1765 29.362 34.1686 29.4244C34.1325 29.7152 34.1277 29.985 34.1541 30.2337C34.1585 30.275 34.1642 30.275 34.1712 30.2337Z" fill="black"/>
<path d="M35.782 32.0913C35.782 32.2556 35.7168 32.4132 35.6006 32.5294C35.4844 32.6456 35.3268 32.7108 35.1625 32.7108H14.0404C13.8761 32.7108 13.7185 32.6456 13.6024 32.5294C13.4862 32.4132 13.4209 32.2556 13.4209 32.0913V32.0781C13.4209 31.9138 13.4862 31.7563 13.6024 31.6401C13.7185 31.5239 13.8761 31.4586 14.0404 31.4586H35.1625C35.3268 31.4586 35.4844 31.5239 35.6006 31.6401C35.7168 31.7563 35.782 31.9138 35.782 32.0781V32.0913ZM24.645 31.7829C24.6397 32.0193 24.6445 32.2394 24.6595 32.4433C24.6674 32.5566 24.6806 32.5571 24.699 32.4446C24.7421 32.1792 24.7469 31.9569 24.7135 31.7776C24.6731 31.5606 24.6502 31.5623 24.645 31.7829ZM34.1713 31.8607C34.1387 32.0487 34.1308 32.242 34.1475 32.4406C34.1502 32.4679 34.1559 32.4683 34.1647 32.442C34.2288 32.2442 34.2402 32.0505 34.1989 31.8607C34.1884 31.8132 34.1792 31.8132 34.1713 31.8607ZM15.1767 32.4723C15.2435 32.1744 15.2501 31.9055 15.1964 31.6656C15.1938 31.6568 15.1881 31.6528 15.1793 31.6537C15.167 31.6546 15.1551 31.6572 15.1437 31.6616C15.1376 31.6642 15.1349 31.6686 15.1358 31.6748C15.1666 31.9384 15.1705 32.2029 15.1477 32.4683C15.1354 32.6107 15.145 32.612 15.1767 32.4723Z" fill="black"/>
<path d="M12.1961 37.0882C12.1144 36.9169 12.1003 36.7411 12.1539 36.561C12.1653 36.5232 12.1847 36.4898 12.2119 36.4608C12.2901 36.3799 12.3398 36.2815 12.3609 36.1655C12.73 36.0794 12.9826 36.0588 13.1188 36.1036C14.3223 36.4951 13.1808 38.0491 12.1961 37.0882Z" fill="black"/>
<path d="M15.6501 37.0274L15.6172 36.4342C15.8149 36.1741 16.1146 36.0647 16.5162 36.106C17.2688 36.1825 17.3571 37.1381 16.6915 37.3332C16.2565 37.4606 15.9094 37.3587 15.6501 37.0274Z" fill="black"/>
<path d="M32.9058 37.378C33.3593 37.3764 33.726 37.0853 33.7247 36.7279C33.7235 36.3705 33.3548 36.082 32.9013 36.0836C32.4477 36.0851 32.0811 36.3762 32.0823 36.7336C32.0836 37.0911 32.4523 37.3795 32.9058 37.378Z" fill="black"/>
<path d="M36.3801 37.3805C36.824 37.3937 37.1925 37.1112 37.2032 36.7495C37.214 36.3879 36.8628 36.084 36.419 36.0709C35.9751 36.0577 35.6065 36.3402 35.5958 36.7018C35.5851 37.0635 35.9362 37.3673 36.3801 37.3805Z" fill="black"/>
</g>
<defs>
<clipPath id="clip0_244_1306">
<rect width="48" height="48" fill="white" transform="translate(0.619141 0.892212)"/>
</clipPath>
</defs>
</svg>
