<svg width="49" height="49" viewBox="0 0 49 49" fill="none" xmlns="http://www.w3.org/2000/svg">
<g clip-path="url(#clip0_244_1506)">
<path d="M11.0277 0.892212H38.7277C44.4277 0.892212 48.9277 5.39221 48.9277 10.9922V38.6922C48.9277 44.3922 44.4277 48.8922 38.8277 48.8922H11.0277C5.42773 48.8922 0.927734 44.3922 0.927734 38.7922V10.9922C0.927734 5.39221 5.42773 0.892212 11.0277 0.892212Z" fill="#93E9BE"/>
<g clip-path="url(#clip1_244_1506)">
<path d="M-2.57324 47.6702C-2.54179 47.6736 -2.51246 47.6698 -2.48526 47.6588C-2.45466 47.6452 -2.42193 47.6384 -2.38707 47.6384H49.5653C49.5703 47.6384 49.5753 47.6374 49.5799 47.6354C49.5845 47.6335 49.5888 47.6307 49.5923 47.6272C49.5959 47.6236 49.5987 47.6194 49.6006 47.6147C49.6025 47.6101 49.6035 47.6051 49.6035 47.6001L49.6163 1.55031C49.6163 1.53103 49.6074 1.51254 49.5916 1.49891C49.5758 1.48528 49.5544 1.47762 49.5321 1.47762L-2.57324 1.44702" stroke="#CFCECF" stroke-opacity="0.788" stroke-width="0.255025"/>
<path d="M34.5398 20.4143C34.7553 17.4496 34.638 14.3651 34.5526 11.3928C34.5449 11.1233 34.5062 10.9108 34.4365 10.7552" stroke="#95979F" stroke-width="0.255025"/>
<path d="M34.4381 10.7565L34.4277 10.6918" stroke="#808080" stroke-width="0.255025"/>
<path d="M34.4273 10.6917C34.3788 10.3185 34.2335 9.98912 33.9912 9.70349" stroke="#95979F" stroke-width="0.255025"/>
<path d="M33.991 9.70343L33.8584 9.53894" stroke="#808080" stroke-width="0.255025"/>
<path d="M33.8589 9.53877C33.7101 9.23359 33.487 9.00322 33.1895 8.84766" stroke="#95979F" stroke-width="0.255025"/>
<path d="M33.1893 8.84791C32.5398 8.41437 31.796 8.19929 30.9578 8.20269C26.2416 8.2231 19.9798 8.21545 12.1727 8.17974C10.4653 8.17209 9.01677 8.96394 8.56537 10.679C8.39323 11.3318 8.44551 12.2142 8.43276 12.9564C8.42681 13.3576 8.6066 13.5582 8.97214 13.5582C10.6204 13.5582 12.2739 13.5595 13.9324 13.562C13.9766 13.562 13.9987 13.5841 13.9987 13.6283C13.9987 20.7979 13.9991 27.9675 13.9999 35.1371C13.9999 35.8639 14.0493 36.3884 14.1479 36.7106C14.6031 38.2063 15.9866 39.0301 17.5053 39.0301C23.5697 39.0318 29.6347 39.0322 35.7 39.0313C36.6861 39.0313 37.3861 38.9667 37.8001 38.8375C38.9562 38.4762 39.6915 37.6593 40.0061 36.3867C40.1208 35.92 40.0686 35.3475 40.0749 34.8413C40.0813 34.3848 39.941 34.293 39.6197 34.0341C38.9992 33.5351 38.3773 33.0361 37.7542 32.5371C37.3857 32.2426 37.1753 32.0092 36.766 32.3433C36.0868 32.8976 35.4003 33.448 34.7067 33.9946C34.6933 34.0052 34.6772 34.0117 34.6603 34.0136C34.6433 34.0154 34.6262 34.0124 34.6109 34.0049C34.5956 33.9975 34.5827 33.9859 34.5737 33.9714C34.5647 33.9569 34.56 33.9402 34.56 33.9232L34.5409 20.4145" stroke="#808080" stroke-width="0.255025"/>
<path d="M33.1889 8.84766L33.3827 9.11926C33.4116 9.16091 33.401 9.18344 33.3508 9.18684L33.0384 9.20852C32.9713 9.21277 32.9449 9.24762 32.9594 9.31308C32.9917 9.45844 32.9619 9.57958 32.8701 9.67649" stroke="#15181F" stroke-width="0.255025"/>
<path d="M32.8699 9.67659C32.4525 9.34676 32.0275 9.17376 31.5948 9.15761C31.123 9.13976 29.9537 9.13891 28.0869 9.15506" stroke="#808080" stroke-width="0.255025"/>
<path d="M28.0866 9.15525C28.0228 8.33789 26.8089 8.57506 26.3958 8.63372C26.0829 8.67707 25.8713 8.85134 25.7607 9.15652" stroke="#15181F" stroke-width="0.255025"/>
<path d="M25.762 9.15637L14.1571 9.23926C14.1069 9.23926 14.098 9.25838 14.1303 9.29664C14.6922 9.9546 14.9736 10.7248 14.9744 11.6072C14.9863 19.49 14.9906 27.3724 14.9872 35.2543C14.9872 35.897 15.048 36.3662 15.1695 36.6621C16.0124 38.7023 19.1505 38.3465 19.482 36.0984C19.5458 35.6598 19.417 34.4994 19.7638 34.2113C20.1803 33.8661 20.9497 33.2422 22.0718 32.3394C22.3268 32.1345 22.592 32.1426 22.8675 32.3636C23.528 32.8915 24.1902 33.4249 24.8541 33.9639C24.8889 33.9928 24.9242 33.9936 24.9599 33.9664C25.6442 33.4402 26.3179 32.8987 26.981 32.3419C27.2301 32.1337 27.494 32.1426 27.7729 32.3687C28.43 32.9009 29.0913 33.4347 29.7569 33.9703C29.7867 33.9949 29.8169 33.9949 29.8475 33.9703L32.0764 32.1902C32.1131 32.161 32.1578 32.1436 32.2045 32.1404C32.2512 32.1372 32.2977 32.1484 32.3378 32.1723C32.7467 32.4129 33.1186 32.7007 33.4535 33.0356C33.4943 33.0773 33.519 33.0692 33.5275 33.0114C33.5589 32.7989 33.573 32.5846 33.5696 32.3687C33.4969 27.2363 33.632 22.118 33.6065 16.978C33.598 15.1928 33.5972 13.4072 33.604 11.6212" stroke="#808080" stroke-width="0.255025"/>
<path d="M33.6035 11.6213L34.0065 11.6022C34.0413 11.6005 34.0689 11.5852 34.0893 11.5563C34.1599 11.4577 34.2466 11.3918 34.3495 11.3586C34.4124 11.3382 34.4451 11.3612 34.4476 11.4275C34.4782 12.5156 34.4693 13.6037 34.4209 14.6918C34.4056 15.0221 34.4744 15.3931 34.4515 15.7489C34.3571 17.2765 34.4795 18.8819 34.5407 20.4146" stroke="#15181F" stroke-width="0.255025"/>
<path d="M33.859 9.53894C33.6958 9.54064 33.6083 9.64053 33.5964 9.83859C33.5751 10.1871 33.5547 10.5352 33.5352 10.8829" stroke="#15181F" stroke-width="0.255025"/>
<path d="M33.5345 10.883C33.3789 10.441 33.1574 10.0389 32.8701 9.67676" stroke="#95979F" stroke-width="0.255025"/>
<path d="M33.5352 10.8829L33.5772 11.0742" stroke="#808080" stroke-width="0.255025"/>
<path d="M33.5771 11.0741L33.6039 11.6211" stroke="#95979F" stroke-width="0.255025"/>
<path d="M28.0866 9.15515L25.7607 9.15643" stroke="#95979F" stroke-width="0.255025"/>
<path d="M33.9904 9.70349L33.9572 10.5055C33.9546 10.5608 33.9814 10.5884 34.0375 10.5884C34.1778 10.5876 34.3074 10.622 34.4264 10.6917" stroke="#15181F" stroke-width="0.255025"/>
<path d="M34.4379 10.7552C34.4744 10.8607 34.4425 10.9287 34.3422 10.9593C34.3031 10.9712 34.2636 10.9729 34.2236 10.9644C34.1216 10.9431 34.0328 10.9754 33.9571 11.0613C33.9274 11.0944 33.89 11.1089 33.8449 11.1046L33.5771 11.074" stroke="#15181F" stroke-width="0.255025"/>
<path d="M29.6797 8.94844C29.6872 8.92455 29.6814 8.8976 29.6636 8.87352C29.6458 8.84945 29.6175 8.83022 29.5848 8.82006C29.5687 8.81503 29.552 8.81238 29.5357 8.81226C29.5193 8.81214 29.5037 8.81456 29.4897 8.81936C29.4757 8.82417 29.4635 8.83129 29.4539 8.84029C29.4443 8.8493 29.4375 8.86002 29.4338 8.87185C29.4264 8.89575 29.4322 8.92269 29.45 8.94677C29.4678 8.97084 29.4961 8.99008 29.5287 9.00023C29.5449 9.00526 29.5616 9.00791 29.5779 9.00803C29.5942 9.00815 29.6099 9.00574 29.6239 9.00093C29.6379 8.99612 29.6501 8.98901 29.6596 8.98C29.6692 8.971 29.6761 8.96027 29.6797 8.94844Z" stroke="#15181F" stroke-width="0.255025"/>
<path d="M13.9656 11.3637C13.9388 9.68815 12.1575 8.81979 10.7472 9.41655C9.38536 9.99163 9.40066 11.2655 9.44529 12.5138C9.44699 12.5529 9.46739 12.5725 9.5065 12.5725H13.9006C13.9414 12.5725 13.9622 12.5521 13.9631 12.5113C13.9707 12.1228 13.9716 11.7402 13.9656 11.3637Z" stroke="#808080" stroke-width="0.255025"/>
<path d="M24.5165 34.9521C23.8611 34.414 23.1968 33.8797 22.5311 33.3531C22.492 33.3225 22.4534 33.3225 22.4151 33.3531L20.6057 34.8118C20.57 34.8416 20.5504 34.8798 20.547 34.9266C20.4795 36.1035 20.5126 37.0267 19.6545 37.9461C19.6467 37.9542 19.6415 37.9645 19.6395 37.9756C19.6376 37.9867 19.6389 37.9981 19.6434 38.0085C19.6479 38.0188 19.6553 38.0276 19.6648 38.0337C19.6742 38.0398 19.6853 38.0431 19.6965 38.043C25.1141 38.0438 30.5198 38.0434 35.9136 38.0417C37.4514 38.0417 38.5773 37.8555 39.0147 36.2922C39.0886 36.0283 39.2276 34.9916 38.9841 34.7965C38.3805 34.3154 37.7829 33.8287 37.1912 33.3365C37.1589 33.3093 37.1266 33.3093 37.0943 33.3365C36.4279 33.8967 35.7512 34.4437 35.0643 34.9776C34.8029 35.1816 34.6219 35.2071 34.3464 34.9852C33.6706 34.4446 32.991 33.9001 32.3075 33.3518C32.2718 33.3237 32.2365 33.3237 32.2017 33.3518C31.5344 33.8856 30.8713 34.4272 30.2125 34.9763C29.9609 35.1854 29.6965 35.1786 29.4194 34.9559C28.4265 34.1619 27.7583 33.6213 27.4149 33.3339C27.3843 33.3084 27.3537 33.3084 27.3231 33.3339C26.6625 33.878 25.9961 34.4152 25.3237 34.9457C25.0495 35.1625 24.7766 35.165 24.5165 34.9521Z" stroke="#808080" stroke-width="0.255025"/>
<path d="M27.147 11.6453C26.6863 11.2721 26.1711 11.0515 25.6016 10.9835" stroke="#95979F" stroke-width="0.255025"/>
<path d="M25.6018 10.9837C23.7784 10.2786 21.5265 11.1852 20.3509 12.519C17.4525 15.8113 19.7643 21.1057 24.1699 21.1579C29.3724 21.2217 31.3858 14.637 27.1473 11.6455" stroke="#808080" stroke-width="0.255025"/>
<path d="M25.6016 10.9835C25.9144 11.633 26.4295 11.8536 27.147 11.6453" stroke="#15181F" stroke-width="0.255025"/>
<path d="M31.2602 23.3792C31.2602 23.1178 31.1563 22.8671 30.9715 22.6822C30.7866 22.4974 30.5359 22.3936 30.2745 22.3936H18.2552C17.9938 22.3936 17.7431 22.4974 17.5582 22.6822C17.3734 22.8671 17.2695 23.1178 17.2695 23.3792V29.6605C17.2695 29.7899 17.295 29.9181 17.3446 30.0377C17.3941 30.1573 17.4667 30.2659 17.5582 30.3575C17.6498 30.449 17.7584 30.5216 17.878 30.5711C17.9976 30.6207 18.1258 30.6462 18.2552 30.6462H30.2745C30.4039 30.6462 30.5321 30.6207 30.6517 30.5711C30.7713 30.5216 30.88 30.449 30.9715 30.3575C31.063 30.2659 31.1356 30.1573 31.1852 30.0377C31.2347 29.9181 31.2602 29.7899 31.2602 29.6605V23.3792Z" stroke="#808080" stroke-width="0.255025"/>
<path d="M24.3188 11.4841C24.3243 11.4845 24.3302 11.4788 24.3362 11.4672C24.3422 11.4557 24.3481 11.4385 24.3537 11.4167C24.3592 11.3949 24.3643 11.3689 24.3686 11.3402C24.3728 11.3116 24.3762 11.2807 24.3786 11.2495C24.3809 11.2183 24.3822 11.1873 24.3822 11.1583C24.3823 11.1292 24.3812 11.1028 24.3789 11.0804C24.3767 11.0581 24.3734 11.0402 24.3692 11.0279C24.365 11.0155 24.36 11.009 24.3545 11.0086C24.349 11.0081 24.3431 11.0139 24.3371 11.0255C24.3311 11.037 24.3252 11.0542 24.3196 11.076C24.314 11.0978 24.309 11.1237 24.3047 11.1524C24.3004 11.1811 24.297 11.212 24.2947 11.2432C24.2923 11.2744 24.2911 11.3054 24.291 11.3344C24.291 11.3634 24.2921 11.3899 24.2943 11.4122C24.2966 11.4346 24.2999 11.4525 24.3041 11.4648C24.3082 11.4771 24.3132 11.4837 24.3188 11.4841Z" stroke="#15181F" stroke-width="0.255025"/>
<path d="M28.4748 15.9578C28.4748 14.8404 28.031 13.7688 27.2409 12.9787C26.4508 12.1886 25.3792 11.7448 24.2618 11.7448C23.7086 11.7448 23.1607 11.8537 22.6496 12.0654C22.1384 12.2772 21.674 12.5875 21.2828 12.9787C20.8916 13.3699 20.5812 13.8344 20.3695 14.3455C20.1578 14.8567 20.0488 15.4045 20.0488 15.9578C20.0488 16.511 20.1578 17.0589 20.3695 17.57C20.5812 18.0812 20.8916 18.5456 21.2828 18.9368C21.674 19.328 22.1384 19.6383 22.6496 19.8501C23.1607 20.0618 23.7086 20.1708 24.2618 20.1708C25.3792 20.1708 26.4508 19.7269 27.2409 18.9368C28.031 18.1467 28.4748 17.0751 28.4748 15.9578Z" stroke="#808080" stroke-width="0.255025"/>
<path d="M24.3818 20.5482C24.3997 20.4955 24.3988 20.4381 24.3793 20.3761C24.3771 20.3682 24.3723 20.3614 24.3656 20.3567C24.359 20.3521 24.3509 20.35 24.3428 20.3507C24.3347 20.3515 24.3271 20.3551 24.3214 20.3609C24.3157 20.3667 24.3123 20.3743 24.3117 20.3825C24.2887 20.5669 24.2849 20.7527 24.3002 20.9397C24.3087 21.0417 24.3223 21.0421 24.341 20.941C24.3606 20.8347 24.3699 20.7297 24.3691 20.626C24.3682 20.5997 24.3725 20.5737 24.3818 20.5482Z" stroke="#15181F" stroke-width="0.255025"/>
<path d="M23.7237 18.5425L23.9086 19.0041C23.9298 19.0568 23.9685 19.0878 24.0246 19.0971C24.4675 19.1694 24.7106 19.0049 24.754 18.6037C24.7582 18.5637 24.7786 18.5357 24.8152 18.5195C26.2548 17.8883 26.1477 15.9412 24.6162 15.514C24.3867 15.4503 24.0004 15.5102 23.804 15.2233C23.4635 14.7222 23.8665 14.1854 24.4071 14.3116C25.0447 14.4621 24.7807 15.7907 25.6899 15.2169C25.7276 15.1934 25.7589 15.1608 25.7811 15.1221C25.8034 15.0835 25.8158 15.0398 25.8174 14.9951C25.8395 14.2419 25.5101 13.7127 24.8292 13.4075C24.7824 13.3863 24.7552 13.3506 24.7476 13.3004L24.7195 13.1053C24.7127 13.0628 24.6949 13.025 24.666 12.9919C24.4654 12.7674 24.2273 12.7266 23.9519 12.8694C23.9077 12.8924 23.878 12.9277 23.8627 12.9753L23.7543 13.3132C23.7407 13.3565 23.7135 13.3884 23.6727 13.4088C22.1757 14.1522 22.4651 16.2409 24.1649 16.4372C25.7307 16.6183 24.2261 18.466 23.7147 17.2533C23.6153 17.0174 23.6319 16.6425 23.3067 16.589C22.7584 16.4984 22.6475 16.9269 22.7329 17.3579C22.8383 17.8934 23.1499 18.2687 23.6676 18.4838C23.6948 18.4957 23.7135 18.5153 23.7237 18.5425Z" stroke="#808080" stroke-width="0.255025"/>
<path d="M24.3105 14.0298C24.3217 14.0301 24.334 13.9782 24.3448 13.8855C24.3556 13.7928 24.364 13.6668 24.3682 13.5353C24.3723 13.4038 24.3718 13.2776 24.3669 13.1844C24.3619 13.0912 24.3528 13.0386 24.3417 13.0382C24.3305 13.0379 24.3182 13.0898 24.3074 13.1825C24.2966 13.2752 24.2882 13.4012 24.284 13.5327C24.2799 13.6641 24.2804 13.7904 24.2853 13.8836C24.2903 13.9768 24.2994 14.0294 24.3105 14.0298Z" stroke="#15181F" stroke-width="0.255025"/>
<path d="M25.5435 14.7069C25.543 14.6992 25.536 14.6921 25.523 14.6859C25.5099 14.6796 25.4911 14.6745 25.4676 14.6707C25.444 14.667 25.4162 14.6646 25.3858 14.6639C25.3553 14.6631 25.3228 14.6639 25.29 14.6662C25.2239 14.671 25.161 14.6817 25.115 14.696C25.0691 14.7103 25.0439 14.7271 25.045 14.7426C25.0455 14.7503 25.0525 14.7574 25.0655 14.7636C25.0786 14.7698 25.0974 14.775 25.1209 14.7787C25.1445 14.7825 25.1723 14.7849 25.2027 14.7856C25.2332 14.7864 25.2657 14.7856 25.2984 14.7832C25.3645 14.7785 25.4275 14.7678 25.4735 14.7535C25.5194 14.7392 25.5446 14.7224 25.5435 14.7069Z" stroke="#15181F" stroke-width="0.255025"/>
<path d="M24.2989 16.102C24.2887 16.1351 24.2896 16.1649 24.3015 16.1912C24.3057 16.2014 24.3138 16.2065 24.3257 16.2065C24.3376 16.2065 24.3499 16.2065 24.3627 16.2065C24.3848 16.2074 24.395 16.1968 24.3933 16.1747L24.3499 15.6978C24.344 15.6289 24.3316 15.6276 24.3129 15.6939C24.2823 15.8002 24.2789 15.9056 24.3027 16.0102C24.3095 16.0408 24.3083 16.0714 24.2989 16.102Z" stroke="#15181F" stroke-width="0.255025"/>
<path d="M24.3247 18.892C24.3342 18.8921 24.344 18.8362 24.3519 18.7366C24.3598 18.6369 24.3652 18.5017 24.3669 18.3607C24.3678 18.2909 24.3677 18.2217 24.3667 18.1572C24.3657 18.0927 24.3638 18.034 24.361 17.9846C24.3583 17.9352 24.3549 17.896 24.3509 17.8692C24.3469 17.8425 24.3424 17.8287 24.3377 17.8286C24.3282 17.8285 24.3185 17.8844 24.3106 17.9841C24.3026 18.0837 24.2972 18.2189 24.2955 18.3599C24.2947 18.4297 24.2947 18.4989 24.2957 18.5634C24.2967 18.6279 24.2987 18.6866 24.3014 18.736C24.3041 18.7854 24.3075 18.8246 24.3116 18.8514C24.3156 18.8782 24.32 18.8919 24.3247 18.892Z" stroke="#15181F" stroke-width="0.255025"/>
<path d="M24.3206 23.1473C24.3307 23.1482 24.3427 23.1213 24.3541 23.0726C24.3655 23.0239 24.3752 22.9573 24.3812 22.8876C24.3872 22.8179 24.3889 22.7506 24.386 22.7007C24.3831 22.6508 24.3758 22.6222 24.3657 22.6214C24.3555 22.6205 24.3435 22.6474 24.3321 22.6961C24.3207 22.7448 24.311 22.8113 24.305 22.8811C24.299 22.9508 24.2973 23.0181 24.3002 23.068C24.3031 23.1179 24.3105 23.1465 24.3206 23.1473Z" stroke="#15181F" stroke-width="0.255025"/>
<path d="M20.893 23.4146C20.893 23.4058 20.8896 23.3974 20.8833 23.3912C20.8771 23.3849 20.8687 23.3814 20.8599 23.3814L18.3097 23.377C18.3053 23.3769 18.301 23.3778 18.297 23.3795C18.293 23.3811 18.2893 23.3835 18.2862 23.3866C18.2831 23.3897 18.2807 23.3933 18.279 23.3974C18.2773 23.4014 18.2765 23.4057 18.2765 23.41L18.2656 29.6224C18.2656 29.6312 18.2691 29.6397 18.2753 29.6459C18.2815 29.6521 18.2899 29.6556 18.2987 29.6556L20.849 29.6601C20.8533 29.6601 20.8576 29.6593 20.8617 29.6576C20.8657 29.6559 20.8693 29.6535 20.8724 29.6504C20.8755 29.6474 20.878 29.6437 20.8796 29.6397C20.8813 29.6357 20.8822 29.6314 20.8822 29.627L20.893 23.4146Z" stroke="#808080" stroke-width="0.255025"/>
<path d="M30.2673 23.449C30.2673 23.4408 30.2657 23.4327 30.2626 23.4251C30.2595 23.4175 30.2549 23.4106 30.2491 23.4048C30.2433 23.399 30.2364 23.3944 30.2288 23.3912C30.2213 23.3881 30.2131 23.3865 30.2049 23.3864L21.9727 23.3721C21.9562 23.372 21.9403 23.3786 21.9285 23.3903C21.9168 23.402 21.9102 23.4179 21.9102 23.4344L21.8994 29.5882C21.8994 29.5964 21.901 29.6045 21.9041 29.6121C21.9073 29.6197 21.9118 29.6266 21.9176 29.6324C21.9234 29.6382 21.9303 29.6428 21.9379 29.646C21.9455 29.6491 21.9536 29.6507 21.9618 29.6508L30.194 29.6651C30.2105 29.6652 30.2264 29.6586 30.2382 29.6469C30.2499 29.6352 30.2565 29.6193 30.2566 29.6028L30.2673 23.449Z" stroke="#808080" stroke-width="0.255025"/>
<path d="M31.0267 23.919C31.0274 23.897 31.0027 23.8751 30.9581 23.8581C30.9134 23.841 30.8524 23.8303 30.7886 23.8281C30.7247 23.826 30.6631 23.8327 30.6174 23.8468C30.5718 23.8608 30.5457 23.881 30.5449 23.903C30.5442 23.925 30.5689 23.9469 30.6135 23.9639C30.6582 23.9809 30.7192 23.9917 30.7831 23.9938C30.8469 23.9959 30.9085 23.9892 30.9542 23.9752C30.9999 23.9612 31.0259 23.9409 31.0267 23.919Z" stroke="#15181F" stroke-width="0.255025"/>
<path d="M21.2537 23.9579C21.3719 24.0046 21.4807 23.9987 21.5802 23.94C21.6337 23.9086 21.6307 23.8848 21.5712 23.8686C21.459 23.838 21.3536 23.8402 21.255 23.875C21.1811 23.9022 21.1806 23.9298 21.2537 23.9579Z" stroke="#15181F" stroke-width="0.255025"/>
<path d="M24.3129 29.9486C24.2764 30.0762 24.2772 30.2049 24.3155 30.335C24.3325 30.3937 24.344 30.3924 24.3499 30.3312L24.3869 29.8785C24.3886 29.8598 24.3801 29.8505 24.3614 29.8505C24.3461 29.8505 24.3308 29.8505 24.3155 29.8505C24.2951 29.8505 24.2878 29.8602 24.2938 29.8798C24.298 29.8908 24.3031 29.9023 24.3091 29.9142C24.315 29.9253 24.3163 29.9367 24.3129 29.9486Z" stroke="#15181F" stroke-width="0.255025"/>
<path d="M29.4619 25.5443C29.4619 25.4269 29.4153 25.3144 29.3323 25.2314C29.2493 25.1484 29.1368 25.1018 29.0194 25.1018H23.1436C23.0263 25.1018 22.9137 25.1484 22.8308 25.2314C22.7478 25.3144 22.7012 25.4269 22.7012 25.5443V25.6157C22.7012 25.733 22.7478 25.8456 22.8308 25.9286C22.9137 26.0115 23.0263 26.0581 23.1436 26.0581H29.0194C29.1368 26.0581 29.2493 26.0115 29.3323 25.9286C29.4153 25.8456 29.4619 25.733 29.4619 25.6157V25.5443Z" stroke="#808080" stroke-width="0.255025"/>
<path d="M29.4629 27.4224C29.4629 27.3054 29.4164 27.1932 29.3336 27.1104C29.2509 27.0277 29.1387 26.9812 29.0217 26.9812H23.1433C23.0263 26.9812 22.9141 27.0277 22.8314 27.1104C22.7486 27.1932 22.7021 27.3054 22.7021 27.4224V27.4963C22.7021 27.5543 22.7136 27.6117 22.7357 27.6652C22.7579 27.7187 22.7904 27.7674 22.8314 27.8083C22.8723 27.8493 22.921 27.8818 22.9745 27.904C23.028 27.9261 23.0854 27.9375 23.1433 27.9375H29.0217C29.0796 27.9375 29.137 27.9261 29.1905 27.904C29.244 27.8818 29.2927 27.8493 29.3336 27.8083C29.3746 27.7674 29.4071 27.7187 29.4293 27.6652C29.4514 27.6117 29.4629 27.5543 29.4629 27.4963V27.4224Z" stroke="#808080" stroke-width="0.255025"/>
<path d="M24.3663 25.682C24.3697 25.5579 24.374 25.4346 24.3791 25.3122C24.3791 25.2986 24.3727 25.2918 24.36 25.2918C24.3489 25.2918 24.3379 25.2918 24.3268 25.2918C24.3055 25.2909 24.2949 25.3011 24.2949 25.3224V25.7661C24.2949 25.8001 24.3106 25.8108 24.3421 25.798C24.3969 25.7763 24.3969 25.7266 24.3663 25.682Z" stroke="#15181F" stroke-width="0.255025"/>
<path d="M24.3185 27.4198C24.2828 27.4912 24.2785 27.5634 24.3057 27.6365C24.3261 27.6901 24.3406 27.6884 24.3491 27.6314L24.3937 27.3318C24.4158 27.1881 24.395 27.1873 24.3312 27.3292C24.3176 27.3581 24.3134 27.3883 24.3185 27.4198Z" stroke="#15181F" stroke-width="0.255025"/>
<path d="M-2.60419 1.35156H49.6682V47.766H-2.65137L-2.57486 47.6704C-2.54341 47.6738 -2.51408 47.67 -2.48688 47.6589C-2.45627 47.6453 -2.42355 47.6385 -2.38869 47.6385H49.5636C49.5687 47.6385 49.5736 47.6375 49.5783 47.6356C49.5829 47.6337 49.5871 47.6309 49.5907 47.6273C49.5942 47.6238 49.5971 47.6196 49.599 47.6149C49.6009 47.6103 49.6019 47.6053 49.6019 47.6003L49.6146 1.55048C49.6146 1.53121 49.6058 1.51272 49.59 1.49909C49.5742 1.48546 49.5528 1.4778 49.5305 1.4778L-2.57486 1.4472L-2.60419 1.35156Z" fill="#7C797B" fill-opacity="0.576"/>
<path d="M-2.57503 1.44727L49.5303 1.47787C49.5526 1.47787 49.574 1.48553 49.5898 1.49916C49.6056 1.51279 49.6145 1.53127 49.6145 1.55055L49.6017 47.6003C49.6017 47.6054 49.6007 47.6103 49.5988 47.615C49.5969 47.6196 49.5941 47.6238 49.5905 47.6274C49.587 47.6309 49.5828 47.6338 49.5781 47.6357C49.5735 47.6376 49.5685 47.6386 49.5635 47.6386H-2.38886C-2.42371 47.6386 -2.45644 47.6454 -2.48704 47.659C-2.51425 47.6701 -2.54357 47.6739 -2.57503 47.6705C-2.60053 47.5897 -2.61328 47.4065 -2.61328 47.1209C-2.61158 31.9809 -2.61158 16.8414 -2.61328 1.70229C-2.61328 1.58158 -2.60053 1.49657 -2.57503 1.44727ZM34.5387 20.4147C34.7542 17.4501 34.6369 14.3655 34.5515 11.3932C34.5438 11.1237 34.5051 10.9112 34.4354 10.7557L34.4252 10.6919C34.3768 10.3187 34.2314 9.98932 33.9891 9.70369L33.8565 9.5392C33.7077 9.23402 33.4846 9.00364 33.1871 8.84808C32.5376 8.41454 31.7938 8.19947 30.9556 8.20287C26.2394 8.22327 19.9776 8.21562 12.1705 8.17992C10.4631 8.17226 9.01456 8.96412 8.56317 10.6792C8.39103 11.332 8.44331 12.2144 8.43056 12.9565C8.42461 13.3578 8.6044 13.5584 8.96994 13.5584C10.6182 13.5584 12.2717 13.5597 13.9302 13.5622C13.9744 13.5622 13.9965 13.5843 13.9965 13.6285C13.9965 20.7981 13.9969 27.9677 13.9977 35.1373C13.9977 35.8641 14.047 36.3886 14.1457 36.7108C14.6009 38.2065 15.9844 39.0302 17.5031 39.0302C23.5675 39.0319 29.6325 39.0324 35.6978 39.0315C36.6839 39.0315 37.3839 38.9669 37.7979 38.8377C38.954 38.4764 39.6893 37.6595 40.0039 36.3869C40.1186 35.9202 40.0664 35.3477 40.0727 34.8415C40.0791 34.385 39.9388 34.2932 39.6175 34.0343C38.997 33.5353 38.3751 33.0363 37.752 32.5373C37.3835 32.2428 37.1731 32.0094 36.7638 32.3435C36.0846 32.8978 35.3981 33.4482 34.7045 33.9948C34.6911 34.0053 34.675 34.0119 34.6581 34.0137C34.6411 34.0156 34.624 34.0126 34.6087 34.0051C34.5934 33.9977 34.5805 33.986 34.5715 33.9716C34.5625 33.9571 34.5578 33.9404 34.5578 33.9234L34.5387 20.4147Z" fill="#93E9BE"/>
<path d="M33.1873 8.84791L33.3811 9.11951C33.41 9.16116 33.3994 9.18369 33.3493 9.18709L33.0369 9.20877C32.9697 9.21302 32.9433 9.24787 32.9578 9.31333C32.9901 9.45869 32.9603 9.57983 32.8685 9.67674C32.4511 9.34691 32.0261 9.17391 31.5934 9.15776C31.1216 9.13991 29.9523 9.13906 28.0856 9.15521C28.0218 8.33786 26.8079 8.57503 26.3947 8.63369C26.0819 8.67704 25.8702 8.85131 25.7597 9.15649L14.1548 9.23937C14.1047 9.23937 14.0958 9.2585 14.1281 9.29675C14.69 9.95471 14.9713 10.7249 14.9722 11.6073C14.9841 19.4901 14.9883 27.3725 14.9849 35.2544C14.9849 35.8971 15.0457 36.3663 15.1673 36.6622C16.0101 38.7024 19.1482 38.3466 19.4797 36.0986C19.5435 35.6599 19.4147 34.4996 19.7615 34.2114C20.1781 33.8662 20.9474 33.2423 22.0695 32.3395C22.3245 32.1346 22.5898 32.1427 22.8652 32.3637C23.5257 32.8916 24.1879 33.425 24.8518 33.964C24.8867 33.9929 24.922 33.9938 24.9577 33.9666C25.642 33.4404 26.3157 32.8988 26.9787 32.342C27.2278 32.1338 27.4918 32.1427 27.7706 32.3688C28.4277 32.901 29.0891 33.4348 29.7547 33.9704C29.7844 33.995 29.8146 33.995 29.8452 33.9704L32.0741 32.1903C32.1109 32.1611 32.1556 32.1437 32.2023 32.1405C32.249 32.1373 32.2955 32.1485 32.3355 32.1725C32.7444 32.413 33.1163 32.7008 33.4513 33.0357C33.4921 33.0774 33.5167 33.0693 33.5252 33.0115C33.5567 32.799 33.5707 32.5847 33.5673 32.3688C33.4946 27.2365 33.6298 22.1181 33.6043 16.9781C33.5958 15.1929 33.5949 13.4073 33.6017 11.6213L34.0047 11.6022C34.0395 11.6005 34.0672 11.5852 34.0876 11.5563C34.1581 11.4577 34.2448 11.3918 34.3477 11.3586C34.4106 11.3382 34.4433 11.3612 34.4459 11.4275C34.4765 12.5156 34.4675 13.6037 34.4191 14.6918C34.4038 15.0221 34.4726 15.3931 34.4497 15.7489C34.3553 17.2765 34.4777 18.8818 34.5389 20.4145L34.5581 33.9232C34.558 33.9402 34.5627 33.9569 34.5718 33.9714C34.5808 33.9859 34.5937 33.9975 34.609 34.0049C34.6243 34.0124 34.6414 34.0154 34.6583 34.0136C34.6753 34.0117 34.6913 34.0052 34.7047 33.9946C35.3984 33.448 36.0848 32.8976 36.764 32.3433C37.1734 32.0092 37.3837 32.2426 37.7523 32.5371C38.3754 33.0361 38.9972 33.5351 39.6178 34.0341C39.9391 34.293 40.0794 34.3848 40.073 34.8413C40.0666 35.3475 40.1189 35.92 40.0041 36.3867C39.6896 37.6593 38.9543 38.4762 37.7982 38.8375C37.3842 38.9667 36.6841 39.0313 35.698 39.0313C29.6327 39.0322 23.5678 39.0318 17.5033 39.0301C15.9846 39.0301 14.6011 38.2063 14.1459 36.7106C14.0473 36.3884 13.998 35.8639 13.998 35.1371C13.9971 27.9675 13.9967 20.7979 13.9967 13.6283C13.9967 13.5841 13.9746 13.562 13.9304 13.562C12.2719 13.5595 10.6185 13.5582 8.97018 13.5582C8.60465 13.5582 8.42486 13.3576 8.43081 12.9564C8.44356 12.2142 8.39128 11.3318 8.56342 10.679C9.01481 8.96394 10.4634 8.17209 12.1707 8.17974C19.9779 8.21545 26.2396 8.2231 30.9559 8.20269C31.794 8.19929 32.5379 8.41437 33.1873 8.84791ZM29.6787 8.94868C29.6862 8.92479 29.6803 8.89784 29.6626 8.87377C29.6448 8.84969 29.6164 8.83046 29.5838 8.8203C29.5677 8.81527 29.551 8.81262 29.5346 8.8125C29.5183 8.81238 29.5027 8.8148 29.4887 8.81961C29.4746 8.82442 29.4625 8.83153 29.4529 8.84053C29.4433 8.84954 29.4365 8.86026 29.4328 8.8721C29.4254 8.89599 29.4312 8.92294 29.449 8.94701C29.4668 8.97109 29.4951 8.99032 29.5277 9.00048C29.5438 9.00551 29.5606 9.00816 29.5769 9.00827C29.5932 9.00839 29.6088 9.00598 29.6229 9.00117C29.6369 8.99636 29.649 8.98925 29.6586 8.98024C29.6682 8.97124 29.675 8.96051 29.6787 8.94868ZM13.9636 11.3637C13.9368 9.68821 12.1554 8.81985 10.7452 9.41661C9.38332 9.99169 9.39863 11.2655 9.44325 12.5139C9.44496 12.553 9.46536 12.5725 9.50446 12.5725H13.8985C13.9393 12.5725 13.9602 12.5521 13.961 12.5113C13.9687 12.1228 13.9695 11.7403 13.9636 11.3637ZM24.5152 34.9522C23.8598 34.4141 23.1955 33.8798 22.5298 33.3532C22.4907 33.3226 22.4521 33.3226 22.4138 33.3532L20.6044 34.812C20.5687 34.8417 20.5492 34.88 20.5457 34.9267C20.4782 36.1037 20.5113 37.0268 19.6532 37.9462C19.6454 37.9544 19.6402 37.9646 19.6383 37.9757C19.6363 37.9868 19.6376 37.9983 19.6421 38.0086C19.6466 38.0189 19.654 38.0277 19.6635 38.0339C19.6729 38.04 19.684 38.0432 19.6952 38.0431C25.1128 38.044 30.5185 38.0435 35.9123 38.0418C37.4501 38.0418 38.576 37.8557 39.0134 36.2924C39.0873 36.0284 39.2263 34.9918 38.9828 34.7967C38.3792 34.3155 37.7816 33.8288 37.1899 33.3366C37.1576 33.3094 37.1253 33.3094 37.093 33.3366C36.4266 33.8968 35.7499 34.4439 35.063 34.9777C34.8016 35.1817 34.6206 35.2072 34.3451 34.9854C33.6693 34.4447 32.9897 33.9002 32.3062 33.3519C32.2705 33.3239 32.2352 33.3239 32.2004 33.3519C31.5331 33.8858 30.87 34.4273 30.2112 34.9765C29.9596 35.1856 29.6952 35.1788 29.4181 34.956C28.4252 34.1621 27.757 33.6214 27.4136 33.3341C27.383 33.3086 27.3524 33.3086 27.3218 33.3341C26.6612 33.8781 25.9948 34.4154 25.3224 34.9458C25.0482 35.1626 24.7753 35.1652 24.5152 34.9522Z" fill="black"/>
<path d="M28.0856 9.15525L25.7598 9.15652C25.8703 8.85134 26.0819 8.67707 26.3948 8.63372C26.8079 8.57506 28.0218 8.33789 28.0856 9.15525Z" fill="#2A2F3E"/>
<path d="M29.5288 9.00071C29.5967 9.02186 29.6643 8.99867 29.6798 8.94891C29.6953 8.89916 29.6528 8.84168 29.5849 8.82052C29.517 8.79937 29.4494 8.82256 29.4339 8.87232C29.4184 8.92207 29.4608 8.97955 29.5288 9.00071Z" fill="#2A2F3E"/>
<path d="M33.1869 8.84802C33.4845 9.00359 33.7076 9.23396 33.8564 9.53914C33.6932 9.54084 33.6056 9.64072 33.5937 9.83879C33.5725 10.1873 33.5521 10.5354 33.5325 10.8831C33.3769 10.4411 33.1555 10.039 32.8682 9.67685C32.96 9.57994 32.9897 9.45881 32.9574 9.31344C32.943 9.24799 32.9693 9.21313 33.0365 9.20888L33.3489 9.18721C33.399 9.1838 33.4097 9.16128 33.3808 9.11962L33.1869 8.84802Z" fill="#2A2F3E"/>
<path d="M28.0859 9.15543C29.9526 9.13928 31.1219 9.14013 31.5937 9.15798C32.0264 9.17413 32.4515 9.34712 32.8688 9.67695C33.1562 10.0391 33.3776 10.4412 33.5332 10.8832L33.5753 11.0745L33.602 11.6215C33.5952 13.4075 33.5961 15.1931 33.6046 16.9783C33.6301 22.1183 33.4949 27.2367 33.5676 32.369C33.571 32.585 33.557 32.7992 33.5255 33.0117C33.517 33.0695 33.4924 33.0776 33.4516 33.0359C33.1166 32.701 32.7447 32.4132 32.3358 32.1727C32.2958 32.1487 32.2493 32.1376 32.2026 32.1408C32.1559 32.1439 32.1112 32.1613 32.0744 32.1905L29.8455 33.9706C29.8149 33.9952 29.7847 33.9952 29.755 33.9706C29.0894 33.435 28.428 32.9012 27.7709 32.369C27.4921 32.1429 27.2281 32.134 26.979 32.3423C26.316 32.8991 25.6423 33.4406 24.958 33.9668C24.9223 33.994 24.887 33.9931 24.8521 33.9642C24.1882 33.4253 23.526 32.8918 22.8655 32.3639C22.5901 32.1429 22.3248 32.1348 22.0698 32.3397C20.9477 33.2425 20.1784 33.8665 19.7619 34.2116C19.415 34.4998 19.5438 35.6601 19.48 36.0988C19.1485 38.3468 16.0104 38.7026 15.1676 36.6624C15.046 36.3666 14.9852 35.8973 14.9852 35.2546C14.9886 27.3727 14.9844 19.4903 14.9725 11.6075C14.9716 10.7251 14.6903 9.95493 14.1284 9.29697C14.0961 9.25871 14.105 9.23959 14.1551 9.23959L25.76 9.1567L28.0859 9.15543ZM27.1461 11.6457C26.6853 11.2726 26.1702 11.052 25.6006 10.984C23.7772 10.2788 21.5253 11.1854 20.3497 12.5192C17.4513 15.8116 19.7631 21.1059 24.1687 21.1582C29.3712 21.2219 31.3846 14.6372 27.1461 11.6457ZM31.2596 23.3794C31.2596 23.118 31.1558 22.8673 30.9709 22.6825C30.7861 22.4976 30.5354 22.3938 30.274 22.3938H18.2547C17.9932 22.3938 17.7425 22.4976 17.5577 22.6825C17.3728 22.8673 17.269 23.118 17.269 23.3794V29.6607C17.269 29.7901 17.2945 29.9183 17.344 30.0379C17.3935 30.1575 17.4662 30.2661 17.5577 30.3577C17.6492 30.4492 17.7579 30.5218 17.8775 30.5713C17.997 30.6209 18.1252 30.6464 18.2547 30.6464H30.274C30.4034 30.6464 30.5316 30.6209 30.6512 30.5713C30.7708 30.5218 30.8794 30.4492 30.9709 30.3577C31.0625 30.2661 31.1351 30.1575 31.1846 30.0379C31.2341 29.9183 31.2596 29.7901 31.2596 29.6607V23.3794Z" fill="#93E9BE"/>
<path d="M10.7452 9.41667C12.1555 8.81991 13.9369 9.68827 13.9637 11.3638C13.9696 11.7404 13.9688 12.1229 13.9611 12.5114C13.9602 12.5522 13.9394 12.5726 13.8986 12.5726H9.50454C9.46544 12.5726 9.44504 12.553 9.44334 12.5139C9.39871 11.2656 9.38341 9.99175 10.7452 9.41667Z" fill="#93E9BE"/>
<path d="M33.8571 9.53906L33.9897 9.70355L33.9565 10.5056C33.954 10.5609 33.9808 10.5885 34.0369 10.5885C34.1771 10.5876 34.3068 10.6221 34.4258 10.6918L34.436 10.7555C34.4725 10.8609 34.4407 10.9289 34.3404 10.9595C34.3013 10.9715 34.2617 10.9732 34.2218 10.9646C34.1198 10.9434 34.0309 10.9757 33.9553 11.0616C33.9255 11.0947 33.8881 11.1092 33.8431 11.1049L33.5753 11.0743L33.5332 10.883C33.5528 10.5354 33.5732 10.1872 33.5944 9.83872C33.6063 9.64065 33.6939 9.54076 33.8571 9.53906Z" fill="black"/>
<path d="M33.9904 9.70349C34.2326 9.98912 34.378 10.3185 34.4264 10.6917C34.3074 10.622 34.1778 10.5876 34.0375 10.5884C33.9814 10.5884 33.9546 10.5608 33.9572 10.5055L33.9904 9.70349Z" fill="#2A2F3E"/>
<path d="M25.5999 10.9838C25.9127 11.6333 26.4278 11.8539 27.1453 11.6456C31.3838 14.6371 29.3704 21.2218 24.1679 21.1581C19.7624 21.1058 17.4506 15.8115 20.3489 12.5191C21.5246 11.1853 23.7764 10.2787 25.5999 10.9838ZM24.3158 11.4843C24.3213 11.4847 24.3272 11.479 24.3332 11.4674C24.3392 11.4558 24.3451 11.4387 24.3507 11.4169C24.3563 11.3951 24.3613 11.3691 24.3656 11.3404C24.3699 11.3117 24.3733 11.2809 24.3756 11.2497C24.378 11.2184 24.3792 11.1874 24.3793 11.1584C24.3793 11.1294 24.3782 11.103 24.376 11.0806C24.3737 11.0582 24.3704 11.0404 24.3662 11.0281C24.3621 11.0157 24.3571 11.0092 24.3515 11.0088C24.346 11.0083 24.3401 11.0141 24.3341 11.0256C24.3281 11.0372 24.3222 11.0544 24.3166 11.0762C24.3111 11.0979 24.306 11.1239 24.3017 11.1526C24.2975 11.1813 24.2941 11.2121 24.2917 11.2434C24.2894 11.2746 24.2881 11.3056 24.2881 11.3346C24.288 11.3636 24.2891 11.3901 24.2914 11.4124C24.2936 11.4348 24.2969 11.4527 24.3011 11.465C24.3053 11.4773 24.3103 11.4839 24.3158 11.4843ZM28.4727 15.9581C28.4727 14.8407 28.0288 13.7692 27.2388 12.9791C26.4487 12.189 25.3771 11.7451 24.2597 11.7451C23.7065 11.7451 23.1586 11.8541 22.6475 12.0658C22.1363 12.2775 21.6719 12.5878 21.2807 12.9791C20.8895 13.3703 20.5791 13.8347 20.3674 14.3459C20.1557 14.857 20.0467 15.4048 20.0467 15.9581C20.0467 16.5114 20.1557 17.0592 20.3674 17.5704C20.5791 18.0815 20.8895 18.5459 21.2807 18.9371C21.6719 19.3284 22.1363 19.6387 22.6475 19.8504C23.1586 20.0621 23.7065 20.1711 24.2597 20.1711C25.3771 20.1711 26.4487 19.7272 27.2388 18.9371C28.0288 18.1471 28.4727 17.0755 28.4727 15.9581ZM24.3796 20.5485C24.3974 20.4958 24.3966 20.4385 24.377 20.3764C24.3749 20.3686 24.3701 20.3617 24.3634 20.3571C24.3567 20.3524 24.3486 20.3503 24.3405 20.3511C24.3324 20.3518 24.3249 20.3554 24.3192 20.3612C24.3135 20.367 24.31 20.3747 24.3094 20.3828C24.2865 20.5672 24.2827 20.753 24.298 20.94C24.3065 21.042 24.3201 21.0424 24.3388 20.9413C24.3583 20.835 24.3677 20.73 24.3668 20.6263C24.366 20.6 24.3702 20.574 24.3796 20.5485Z" fill="black"/>
<path d="M34.4359 10.7556C34.5056 10.9112 34.5443 11.1237 34.5519 11.3932C34.6374 14.3655 34.7547 17.45 34.5392 20.4147C34.478 18.882 34.3556 17.2766 34.4499 15.749C34.4729 15.3932 34.404 15.0222 34.4193 14.6919C34.4678 13.6038 34.4767 12.5157 34.4461 11.4276C34.4436 11.3613 34.4108 11.3383 34.3479 11.3587C34.2451 11.3919 34.1584 11.4578 34.0878 11.5564C34.0674 11.5853 34.0398 11.6006 34.0049 11.6023L33.602 11.6214L33.5752 11.0744L33.843 11.105C33.888 11.1092 33.9254 11.0948 33.9552 11.0616C34.0308 10.9758 34.1197 10.9435 34.2217 10.9647C34.2616 10.9732 34.3012 10.9715 34.3403 10.9596C34.4406 10.929 34.4725 10.861 34.4359 10.7556Z" fill="#2A2F3E"/>
<path d="M25.5996 10.9839C26.1692 11.0519 26.6843 11.2725 27.1451 11.6457C26.4276 11.8539 25.9124 11.6333 25.5996 10.9839Z" fill="#2A2F3E"/>
<path d="M24.2927 11.2433C24.2829 11.3746 24.2936 11.4825 24.3168 11.4842C24.34 11.486 24.3668 11.3809 24.3767 11.2496C24.3865 11.1183 24.3757 11.0104 24.3526 11.0087C24.3294 11.0069 24.3026 11.112 24.2927 11.2433Z" fill="#2A2F3E"/>
<path d="M28.4739 15.9581C28.4739 17.0755 28.03 18.1471 27.2399 18.9372C26.4498 19.7273 25.3782 20.1711 24.2609 20.1711C23.7076 20.1711 23.1598 20.0622 22.6486 19.8504C22.1375 19.6387 21.673 19.3284 21.2818 18.9372C20.8906 18.546 20.5803 18.0815 20.3685 17.5704C20.1568 17.0592 20.0479 16.5114 20.0479 15.9581C20.0479 15.4049 20.1568 14.857 20.3685 14.3459C20.5803 13.8347 20.8906 13.3703 21.2818 12.9791C21.673 12.5879 22.1375 12.2775 22.6486 12.0658C23.1598 11.8541 23.7076 11.7451 24.2609 11.7451C25.3782 11.7451 26.4498 12.189 27.2399 12.9791C28.03 13.7692 28.4739 14.8408 28.4739 15.9581ZM23.7228 18.5428L23.9076 19.0044C23.9289 19.0571 23.9676 19.0881 24.0237 19.0975C24.4666 19.1697 24.7097 19.0052 24.7531 18.604C24.7573 18.564 24.7777 18.536 24.8143 18.5198C26.2539 17.8887 26.1468 15.9415 24.6153 15.5144C24.3858 15.4506 23.9995 15.5106 23.8031 15.2237C23.4626 14.7225 23.8656 14.1857 24.4062 14.3119C25.0438 14.4624 24.7798 15.7911 25.689 15.2173C25.7267 15.1937 25.758 15.1612 25.7802 15.1225C25.8025 15.0838 25.8149 15.0402 25.8165 14.9954C25.8386 14.2422 25.5092 13.7131 24.8283 13.4079C24.7815 13.3866 24.7543 13.3509 24.7467 13.3008L24.7186 13.1057C24.7118 13.0632 24.694 13.0253 24.6651 12.9922C24.4645 12.7678 24.2264 12.727 23.951 12.8698C23.9068 12.8927 23.877 12.928 23.8617 12.9756L23.7534 13.3135C23.7398 13.3569 23.7126 13.3888 23.6718 13.4092C22.1748 14.1525 22.4642 16.2412 24.1639 16.4376C25.7298 16.6186 24.2252 18.4663 23.7138 17.2536C23.6144 17.0178 23.6309 16.6429 23.3058 16.5893C22.7575 16.4988 22.6466 16.9272 22.732 17.3582C22.8374 17.8938 23.149 18.2691 23.6667 18.4841C23.6939 18.496 23.7126 18.5156 23.7228 18.5428Z" fill="#93E9BE"/>
<path d="M23.6656 18.4842C23.1479 18.2691 22.8363 17.8938 22.7309 17.3582C22.6455 16.9272 22.7564 16.4988 23.3047 16.5893C23.6299 16.6429 23.6133 17.0178 23.7128 17.2537C24.2241 18.4663 25.7288 16.6187 24.1629 16.4376C22.4632 16.2412 22.1737 14.1526 23.6707 13.4092C23.7115 13.3888 23.7387 13.3569 23.7523 13.3135L23.8607 12.9756C23.876 12.928 23.9058 12.8928 23.95 12.8698C24.2254 12.727 24.4634 12.7678 24.664 12.9922C24.6929 13.0254 24.7108 13.0632 24.7176 13.1057L24.7456 13.3008C24.7533 13.351 24.7805 13.3867 24.8272 13.4079C25.5082 13.7131 25.8376 14.2423 25.8155 14.9954C25.8139 15.0402 25.8014 15.0838 25.7792 15.1225C25.7569 15.1612 25.7256 15.1937 25.6879 15.2173C24.7788 15.7911 25.0427 14.4624 24.4052 14.312C23.8645 14.1857 23.4616 14.7226 23.802 15.2237C23.9984 15.5106 24.3848 15.4507 24.6143 15.5144C26.1457 15.9416 26.2528 17.8887 24.8132 18.5199C24.7767 18.536 24.7563 18.5641 24.752 18.604C24.7087 19.0053 24.4655 19.1698 24.0226 19.0975C23.9665 19.0882 23.9279 19.0571 23.9066 19.0044L23.7217 18.5428C23.7115 18.5156 23.6928 18.4961 23.6656 18.4842ZM24.3093 14.0299C24.3204 14.0303 24.3328 13.9784 24.3436 13.8856C24.3544 13.7929 24.3628 13.667 24.3669 13.5355C24.371 13.404 24.3706 13.2778 24.3656 13.1845C24.3606 13.0913 24.3516 13.0387 24.3404 13.0384C24.3293 13.038 24.3169 13.0899 24.3061 13.1827C24.2953 13.2754 24.2869 13.4013 24.2828 13.5328C24.2787 13.6643 24.2791 13.7905 24.2841 13.8838C24.2891 13.977 24.2981 14.0296 24.3093 14.0299ZM25.5419 14.7072C25.5414 14.6996 25.5344 14.6924 25.5214 14.6862C25.5083 14.68 25.4895 14.6749 25.466 14.6711C25.4424 14.6673 25.4146 14.665 25.3842 14.6642C25.3537 14.6635 25.3212 14.6643 25.2885 14.6666C25.2224 14.6713 25.1594 14.6821 25.1134 14.6964C25.0675 14.7107 25.0423 14.7275 25.0434 14.743C25.0439 14.7507 25.0509 14.7578 25.064 14.764C25.077 14.7702 25.0958 14.7753 25.1194 14.7791C25.1429 14.7829 25.1707 14.7852 25.2011 14.786C25.2316 14.7868 25.2641 14.786 25.2969 14.7836C25.363 14.7789 25.4259 14.7682 25.4719 14.7538C25.5179 14.7395 25.5431 14.7228 25.5419 14.7072ZM24.2968 16.1022C24.2866 16.1354 24.2874 16.1651 24.2993 16.1915C24.3036 16.2017 24.3117 16.2068 24.3236 16.2068C24.3355 16.2068 24.3478 16.2068 24.3605 16.2068C24.3826 16.2077 24.3929 16.197 24.3912 16.1749L24.3478 15.698C24.3418 15.6292 24.3295 15.6279 24.3108 15.6942C24.2802 15.8005 24.2768 15.9059 24.3006 16.0104C24.3074 16.041 24.3061 16.0716 24.2968 16.1022ZM24.3235 18.8922C24.3329 18.8923 24.3427 18.8364 24.3506 18.7367C24.3585 18.6371 24.3639 18.5019 24.3656 18.3609C24.3665 18.2911 24.3664 18.2219 24.3654 18.1574C24.3644 18.0929 24.3625 18.0342 24.3598 17.9848C24.3571 17.9354 24.3536 17.8962 24.3496 17.8694C24.3456 17.8426 24.3411 17.8288 24.3364 17.8288C24.327 17.8287 24.3172 17.8846 24.3093 17.9842C24.3014 18.0839 24.296 18.219 24.2942 18.3601C24.2934 18.4299 24.2935 18.499 24.2945 18.5636C24.2955 18.6281 24.2974 18.6868 24.3001 18.7362C24.3028 18.7856 24.3063 18.8248 24.3103 18.8516C24.3143 18.8783 24.3188 18.8921 24.3235 18.8922Z" fill="black"/>
<path d="M24.2831 13.5329C24.2745 13.8067 24.2864 14.0293 24.3096 14.03C24.3328 14.0308 24.3586 13.8094 24.3672 13.5356C24.3758 13.2618 24.364 13.0392 24.3408 13.0385C24.3175 13.0377 24.2917 13.2591 24.2831 13.5329Z" fill="#2A2F3E"/>
<path d="M25.2977 14.7836C25.4354 14.7737 25.5451 14.7395 25.5428 14.7072C25.5405 14.6749 25.427 14.6567 25.2893 14.6666C25.1516 14.6764 25.0419 14.7106 25.0442 14.743C25.0465 14.7753 25.16 14.7935 25.2977 14.7836Z" fill="#2A2F3E"/>
<path d="M24.3008 16.0103C24.277 15.9057 24.2804 15.8003 24.311 15.6941C24.3297 15.6277 24.342 15.629 24.348 15.6979L24.3913 16.1748C24.393 16.1969 24.3828 16.2075 24.3607 16.2067C24.348 16.2067 24.3356 16.2067 24.3237 16.2067C24.3118 16.2067 24.3038 16.2016 24.2995 16.1914C24.2876 16.165 24.2868 16.1352 24.297 16.1021C24.3063 16.0715 24.3076 16.0409 24.3008 16.0103Z" fill="#2A2F3E"/>
<path d="M24.2942 18.36C24.2906 18.6537 24.3037 18.8919 24.3234 18.8922C24.3431 18.8924 24.362 18.6546 24.3656 18.3609C24.3692 18.0673 24.3561 17.829 24.3364 17.8288C24.3167 17.8285 24.2978 18.0664 24.2942 18.36Z" fill="#2A2F3E"/>
<path d="M24.3681 20.6264C24.3689 20.7301 24.3596 20.8351 24.34 20.9413C24.3213 21.0425 24.3077 21.0421 24.2992 20.94C24.2839 20.753 24.2877 20.5673 24.3107 20.3828C24.3113 20.3747 24.3148 20.3671 24.3204 20.3613C24.3261 20.3555 24.3337 20.3519 24.3418 20.3511C24.3499 20.3503 24.358 20.3525 24.3647 20.3571C24.3713 20.3617 24.3762 20.3686 24.3783 20.3764C24.3978 20.4385 24.3987 20.4959 24.3808 20.5486C24.3715 20.5741 24.3672 20.6 24.3681 20.6264Z" fill="#2A2F3E"/>
<path d="M31.2592 29.6606C31.2592 29.79 31.2337 29.9182 31.1842 30.0378C31.1346 30.1574 31.062 30.266 30.9705 30.3576C30.879 30.4491 30.7703 30.5217 30.6507 30.5712C30.5311 30.6208 30.403 30.6463 30.2735 30.6463H18.2542C18.1248 30.6463 17.9966 30.6208 17.877 30.5712C17.7574 30.5217 17.6488 30.4491 17.5572 30.3576C17.4657 30.266 17.3931 30.1574 17.3436 30.0378C17.294 29.9182 17.2686 29.79 17.2686 29.6606V23.3793C17.2686 23.1179 17.3724 22.8672 17.5572 22.6824C17.7421 22.4975 17.9928 22.3937 18.2542 22.3937H30.2735C30.5349 22.3937 30.7857 22.4975 30.9705 22.6824C31.1554 22.8672 31.2592 23.1179 31.2592 23.3793V29.6606ZM24.3191 23.1476C24.3292 23.1484 24.3413 23.1216 24.3527 23.0729C24.364 23.0242 24.3738 22.9576 24.3798 22.8879C24.3858 22.8181 24.3875 22.7509 24.3846 22.701C24.3816 22.651 24.3743 22.6225 24.3642 22.6216C24.3541 22.6208 24.342 22.6476 24.3307 22.6963C24.3193 22.745 24.3095 22.8116 24.3035 22.8813C24.2976 22.9511 24.2958 23.0183 24.2988 23.0682C24.3017 23.1182 24.309 23.1467 24.3191 23.1476ZM20.8902 23.4148C20.8902 23.406 20.8868 23.3976 20.8806 23.3913C20.8743 23.3851 20.8659 23.3816 20.8571 23.3816L18.3069 23.3771C18.3025 23.3771 18.2982 23.378 18.2942 23.3796C18.2902 23.3813 18.2865 23.3837 18.2834 23.3868C18.2803 23.3899 18.2779 23.3935 18.2762 23.3975C18.2745 23.4016 18.2737 23.4059 18.2737 23.4102L18.2628 29.6226C18.2628 29.6314 18.2663 29.6398 18.2725 29.6461C18.2787 29.6523 18.2871 29.6558 18.2959 29.6558L20.8462 29.6603C20.8505 29.6603 20.8548 29.6594 20.8589 29.6578C20.8629 29.6561 20.8665 29.6537 20.8696 29.6506C20.8727 29.6475 20.8752 29.6439 20.8768 29.6399C20.8785 29.6358 20.8794 29.6315 20.8794 29.6272L20.8902 23.4148ZM30.2649 23.4491C30.2649 23.4409 30.2633 23.4328 30.2602 23.4252C30.257 23.4176 30.2524 23.4107 30.2466 23.4049C30.2409 23.3991 30.234 23.3945 30.2264 23.3913C30.2188 23.3882 30.2107 23.3866 30.2025 23.3865L21.9703 23.3722C21.9537 23.3721 21.9378 23.3787 21.9261 23.3904C21.9144 23.4021 21.9078 23.418 21.9077 23.4345L21.897 29.5883C21.897 29.5965 21.8986 29.6046 21.9017 29.6122C21.9048 29.6198 21.9094 29.6267 21.9152 29.6325C21.921 29.6383 21.9279 29.6429 21.9355 29.6461C21.943 29.6492 21.9512 29.6508 21.9594 29.6509L30.1915 29.6652C30.2081 29.6653 30.224 29.6587 30.2357 29.647C30.2475 29.6353 30.2541 29.6194 30.2541 29.6029L30.2649 23.4491ZM31.0245 23.9191C31.0252 23.8971 31.0005 23.8752 30.9558 23.8582C30.9112 23.8411 30.8502 23.8304 30.7863 23.8282C30.7225 23.8261 30.6609 23.8328 30.6152 23.8468C30.5695 23.8609 30.5434 23.8811 30.5427 23.9031C30.542 23.925 30.5667 23.947 30.6113 23.964C30.656 23.981 30.7169 23.9918 30.7808 23.9939C30.8447 23.996 30.9063 23.9893 30.9519 23.9753C30.9976 23.9613 31.0237 23.941 31.0245 23.9191ZM21.252 23.9583C21.3702 24.005 21.479 23.9991 21.5785 23.9404C21.632 23.9089 21.629 23.8851 21.5695 23.869C21.4573 23.8384 21.3519 23.8405 21.2533 23.8754C21.1794 23.9026 21.1789 23.9302 21.252 23.9583ZM24.3111 29.9488C24.2745 30.0763 24.2754 30.2051 24.3136 30.3351C24.3306 30.3938 24.3421 30.3925 24.348 30.3313L24.385 29.8786C24.3867 29.8599 24.3782 29.8506 24.3595 29.8506C24.3442 29.8506 24.3289 29.8506 24.3136 29.8506C24.2932 29.8506 24.286 29.8604 24.2919 29.8799C24.2962 29.891 24.3013 29.9025 24.3072 29.9144C24.3132 29.9254 24.3145 29.9369 24.3111 29.9488Z" fill="black"/>
<path d="M24.3036 22.8813C24.2911 23.0266 24.2981 23.1458 24.3191 23.1476C24.3402 23.1494 24.3673 23.0331 24.3798 22.8879C24.3922 22.7426 24.3853 22.6234 24.3642 22.6216C24.3432 22.6198 24.316 22.7361 24.3036 22.8813Z" fill="#2A2F3E"/>
<path d="M20.8568 23.3816L18.3066 23.3771C18.2883 23.3771 18.2734 23.3919 18.2734 23.4102L18.2625 29.6226C18.2625 29.6409 18.2773 29.6558 18.2956 29.6558L20.8459 29.6603C20.8642 29.6603 20.8791 29.6455 20.8791 29.6272L20.8899 23.4148C20.89 23.3965 20.8751 23.3816 20.8568 23.3816Z" fill="#93E9BE"/>
<path d="M30.2546 29.6028C30.2546 29.6193 30.248 29.6352 30.2362 29.6469C30.2245 29.6586 30.2086 29.6652 30.192 29.6651L21.9598 29.6508C21.9516 29.6507 21.9435 29.6491 21.9359 29.646C21.9284 29.6428 21.9215 29.6382 21.9157 29.6324C21.9099 29.6266 21.9053 29.6197 21.9022 29.6121C21.899 29.6045 21.8974 29.5964 21.8975 29.5882L21.9082 23.4344C21.9082 23.4179 21.9149 23.402 21.9266 23.3903C21.9383 23.3786 21.9542 23.372 21.9708 23.3721L30.203 23.3864C30.2112 23.3865 30.2193 23.3881 30.2269 23.3912C30.2345 23.3944 30.2413 23.399 30.2471 23.4048C30.2529 23.4106 30.2575 23.4175 30.2606 23.4251C30.2638 23.4327 30.2654 23.4408 30.2654 23.449L30.2546 29.6028ZM29.4605 25.5444C29.4605 25.4271 29.4139 25.3145 29.3309 25.2315C29.2479 25.1486 29.1354 25.1019 29.018 25.1019H23.1422C23.0249 25.1019 22.9124 25.1486 22.8294 25.2315C22.7464 25.3145 22.6998 25.4271 22.6998 25.5444V25.6158C22.6998 25.7332 22.7464 25.8457 22.8294 25.9287C22.9124 26.0117 23.0249 26.0583 23.1422 26.0583H29.018C29.1354 26.0583 29.2479 26.0117 29.3309 25.9287C29.4139 25.8457 29.4605 25.7332 29.4605 25.6158V25.5444ZM29.4618 27.4227C29.4618 27.3057 29.4153 27.1934 29.3325 27.1107C29.2498 27.028 29.1376 26.9815 29.0206 26.9815H23.1422C23.0252 26.9815 22.913 27.028 22.8303 27.1107C22.7475 27.1934 22.7011 27.3057 22.7011 27.4227V27.4966C22.7011 27.5546 22.7125 27.6119 22.7346 27.6655C22.7568 27.719 22.7893 27.7676 22.8303 27.8086C22.8712 27.8496 22.9199 27.8821 22.9734 27.9042C23.0269 27.9264 23.0843 27.9378 23.1422 27.9378H29.0206C29.0785 27.9378 29.1359 27.9264 29.1894 27.9042C29.2429 27.8821 29.2916 27.8496 29.3325 27.8086C29.3735 27.7676 29.406 27.719 29.4282 27.6655C29.4503 27.6119 29.4618 27.5546 29.4618 27.4966V27.4227Z" fill="#93E9BE"/>
<path d="M30.7803 23.994C30.9133 23.9984 31.0224 23.9649 31.0239 23.9191C31.0254 23.8734 30.9188 23.8327 30.7858 23.8283C30.6528 23.8239 30.5437 23.8574 30.5422 23.9031C30.5407 23.9489 30.6473 23.9896 30.7803 23.994Z" fill="#2A2F3E"/>
<path d="M21.254 23.8754C21.3526 23.8405 21.4581 23.8384 21.5703 23.869C21.6298 23.8851 21.6327 23.9089 21.5792 23.9404C21.4797 23.9991 21.3709 24.005 21.2528 23.9583C21.1796 23.9302 21.1801 23.9026 21.254 23.8754Z" fill="#2A2F3E"/>
<path d="M29.4609 25.6158C29.4609 25.7332 29.4143 25.8457 29.3313 25.9287C29.2483 26.0117 29.1358 26.0583 29.0184 26.0583H23.1427C23.0253 26.0583 22.9128 26.0117 22.8298 25.9287C22.7468 25.8457 22.7002 25.7332 22.7002 25.6158V25.5444C22.7002 25.427 22.7468 25.3145 22.8298 25.2315C22.9128 25.1485 23.0253 25.1019 23.1427 25.1019H29.0184C29.1358 25.1019 29.2483 25.1485 29.3313 25.2315C29.4143 25.3145 29.4609 25.427 29.4609 25.5444V25.6158ZM24.3655 25.6821C24.3689 25.558 24.3732 25.4347 24.3783 25.3123C24.3783 25.2987 24.3719 25.2919 24.3591 25.2919C24.3481 25.2919 24.337 25.2919 24.326 25.2919C24.3047 25.2911 24.2941 25.3013 24.2941 25.3225V25.7663C24.2941 25.8003 24.3098 25.8109 24.3413 25.7981C24.3961 25.7765 24.3961 25.7267 24.3655 25.6821Z" fill="black"/>
<path d="M24.3654 25.6821C24.396 25.7267 24.396 25.7765 24.3411 25.7981C24.3097 25.8109 24.2939 25.8003 24.2939 25.7663V25.3225C24.2939 25.3013 24.3046 25.2911 24.3258 25.2919C24.3369 25.2919 24.3479 25.2919 24.359 25.2919C24.3717 25.2919 24.3781 25.2987 24.3781 25.3123C24.373 25.4347 24.3688 25.558 24.3654 25.6821Z" fill="#2A2F3E"/>
<path d="M29.4619 27.4967C29.4619 27.5547 29.4505 27.612 29.4283 27.6656C29.4061 27.7191 29.3736 27.7677 29.3327 27.8087C29.2917 27.8497 29.243 27.8822 29.1895 27.9043C29.136 27.9265 29.0786 27.9379 29.0207 27.9379H23.1424C23.0844 27.9379 23.0271 27.9265 22.9735 27.9043C22.92 27.8822 22.8714 27.8497 22.8304 27.8087C22.7894 27.7677 22.7569 27.7191 22.7348 27.6656C22.7126 27.612 22.7012 27.5547 22.7012 27.4967V27.4228C22.7012 27.3057 22.7477 27.1935 22.8304 27.1108C22.9131 27.0281 23.0254 26.9816 23.1424 26.9816H29.0207C29.1377 26.9816 29.2499 27.0281 29.3327 27.1108C29.4154 27.1935 29.4619 27.3057 29.4619 27.4228V27.4967ZM24.318 27.4202C24.2823 27.4916 24.2781 27.5639 24.3053 27.637C24.3257 27.6905 24.3401 27.6888 24.3486 27.6319L24.3933 27.3322C24.4154 27.1886 24.3945 27.1877 24.3308 27.3297C24.3172 27.3586 24.3129 27.3888 24.318 27.4202Z" fill="black"/>
<path d="M24.3185 27.4201C24.3134 27.3887 24.3176 27.3585 24.3312 27.3296C24.395 27.1876 24.4158 27.1885 24.3937 27.3321L24.3491 27.6318C24.3406 27.6888 24.3261 27.6905 24.3057 27.6369C24.2785 27.5638 24.2828 27.4915 24.3185 27.4201Z" fill="#2A2F3E"/>
<path d="M24.3081 29.9142C24.3022 29.9023 24.2971 29.8908 24.2928 29.8798C24.2869 29.8602 24.2941 29.8505 24.3145 29.8505C24.3298 29.8505 24.3451 29.8505 24.3604 29.8505C24.3791 29.8505 24.3876 29.8598 24.3859 29.8785L24.3489 30.3312C24.343 30.3924 24.3315 30.3937 24.3145 30.335C24.2762 30.2049 24.2754 30.0762 24.3119 29.9486C24.3153 29.9367 24.3141 29.9253 24.3081 29.9142Z" fill="#2A2F3E"/>
<path d="M22.5292 33.3532C23.1948 33.8798 23.8591 34.4141 24.5146 34.9522C24.7747 35.1651 25.0476 35.1626 25.3217 34.9458C25.9941 34.4154 26.6606 33.8781 27.3211 33.3341C27.3517 33.3086 27.3823 33.3086 27.4129 33.3341C27.7563 33.6214 28.4245 34.162 29.4174 34.956C29.6945 35.1787 29.9589 35.1855 30.2105 34.9764C30.8693 34.4273 31.5324 33.8858 32.1997 33.3519C32.2346 33.3239 32.2699 33.3239 32.3056 33.3519C32.989 33.9002 33.6687 34.4447 34.3445 34.9854C34.6199 35.2072 34.801 35.1817 35.0624 34.9777C35.7492 34.4438 36.4259 33.8968 37.0924 33.3366C37.1247 33.3094 37.157 33.3094 37.1893 33.3366C37.7809 33.8288 38.3785 34.3155 38.9821 34.7966C39.2256 34.9917 39.0867 36.0284 39.0127 36.2924C38.5753 37.8557 37.4494 38.0418 35.9116 38.0418C30.5178 38.0435 25.1122 38.0439 19.6946 38.0431C19.6833 38.0432 19.6723 38.04 19.6628 38.0338C19.6534 38.0277 19.646 38.0189 19.6415 38.0086C19.637 37.9982 19.6356 37.9868 19.6376 37.9757C19.6396 37.9646 19.6447 37.9544 19.6525 37.9462C20.5107 37.0268 20.4775 36.1036 20.5451 34.9267C20.5485 34.8799 20.568 34.8417 20.6038 34.8119L22.4131 33.3532C22.4514 33.3226 22.4901 33.3226 22.5292 33.3532Z" fill="#93E9BE"/>
</g>
</g>
<defs>
<clipPath id="clip0_244_1506">
<rect width="48" height="48" fill="white" transform="translate(0.927734 0.892212)"/>
</clipPath>
<clipPath id="clip1_244_1506">
<rect width="41" height="37.6667" fill="white" transform="translate(4.92773 4.89221)"/>
</clipPath>
</defs>
</svg>
